<svg version="1.2" xmlns="http://www.w3.org/2000/svg" viewBox="0 0 250 250" width="250" height="250">
	<style>
		.s0 { fill: #448674 } 
		.s1 { fill: #ffffff } 
	</style>
	<path id="Forma 1" fill-rule="evenodd" class="s0" d="m125.12 247.69c-67.91 0-122.81-54.9-122.81-122.81 0-67.9 54.9-122.8 122.81-122.8 67.9 0 122.8 54.9 122.8 122.8 0 67.91-54.9 122.81-122.8 122.81z"/>
	<g id="&lt;Group&gt;">
		<g id="&lt;Group&gt;">
			<path id="&lt;Compound Path&gt;" fill-rule="evenodd" class="s1" d="m69.26 35.49l15.92 11.66q0.97 0.7 1.64 0.71 0.66 0.01 1.07-0.22l0.32 0.5q-0.53 0.26-1.25 0.71-0.72 0.44-1.44 0.9-0.96 0.61-1.79 1.16-0.83 0.55-1.31 0.93l-0.32-0.5q1.23-0.85 1.33-1.45 0.1-0.6-1.2-1.55l-4.09-3.07 1.14-0.73-0.32-0.5-1.32 0.85-7.46-5.6 1.87 9.17-0.19 0.12 0.07 0.65 0.24-0.15 0.67 3.25q0.23 1.24 0.59 1.97 0.36 0.72 0.82 0.98 0.47 0.26 1.08 0.11 0.62-0.15 1.4-0.61l0.31 0.49q-0.72 0.39-1.48 0.86-0.76 0.47-1.4 0.88-0.62 0.39-1.04 0.68-0.42 0.29-0.76 0.57l-0.32-0.49q0.42-0.44 0.64-1.22 0.23-0.79-0.06-2.17l-3.75-18.64q0.1-0.06 0.19-0.13 0.1-0.06 0.2-0.12zm8.88 9.78l-0.5-0.38-5.59 3.57 0.12 0.62z"/>
			<path id="&lt;Compound Path&gt;" class="s1" d="m81.06 28.81q0.58-0.19 1.52-0.52 0.94-0.32 1.85-0.66 1.28-0.49 2.45-0.96 1.17-0.47 1.66-0.65 2.22-0.84 3.92-0.76 1.7 0.07 2.83 0.88 1.14 0.81 1.64 2.15 0.31 0.82 0.33 1.88 0.03 1.05-0.47 2.18-0.5 1.12-1.69 2.18-1.2 1.06-3.33 1.87l-2.63 0.99-0.21-0.55 2.36-0.89q1.94-0.73 2.73-1.73 0.8-1 0.78-2.17-0.02-1.17-0.49-2.43-0.82-2.16-2.29-2.96-1.48-0.8-3.97 0.13-1.26 0.48-1.47 1.09-0.2 0.61 0.33 2.03l5.12 13.58q0.37 0.98 0.72 1.42 0.35 0.43 0.9 0.41 0.54-0.02 1.49-0.31l0.2 0.54q-0.65 0.19-1.6 0.53-0.95 0.34-1.9 0.7-1.07 0.41-2 0.77-0.92 0.37-1.48 0.64l-0.2-0.55q0.91-0.41 1.32-0.75 0.42-0.35 0.4-0.9-0.02-0.55-0.39-1.54l-5.12-13.58q-0.39-1.01-0.73-1.43-0.35-0.41-0.89-0.41-0.55 0-1.49 0.32zm8.02 8.08q1.5-0.5 2.37-0.75 0.88-0.26 1.43-0.4 0.56-0.15 1.08-0.25 1.95-0.39 3.06 0.11 1.11 0.5 2.13 2.06l1.74 2.53q0.73 1.1 1.22 1.53 0.49 0.42 1.08 0.17 0.45-0.2 0.67-0.6 0.21-0.39 0.39-0.99l0.52 0.15q-0.25 1.06-0.7 1.75-0.44 0.68-1.57 1.1-1.01 0.39-2 0.07-1-0.31-2.04-1.92l-1.64-2.51q-0.69-1.08-1.33-1.83-0.64-0.74-1.38-1.02-0.75-0.28-1.84 0.13l-2.96 1.12z"/>
			<path id="&lt;Compound Path&gt;" fill-rule="evenodd" class="s1" d="m112.51 19.56q2.76-0.35 4.99 0.63 2.24 0.98 3.69 3.17 1.44 2.19 1.87 5.52 0.42 3.25-0.44 5.84-0.86 2.59-2.78 4.22-1.91 1.64-4.61 1.98-2.76 0.36-4.99-0.62-2.23-0.98-3.68-3.19-1.45-2.2-1.88-5.51-0.42-3.25 0.46-5.84 0.88-2.59 2.77-4.22 1.9-1.63 4.6-1.98zm-0.05 0.54q-1.88 0.24-3.11 1.73-1.22 1.48-1.7 3.87-0.47 2.4-0.08 5.41 0.39 3.08 1.54 5.25 1.15 2.17 2.78 3.21 1.62 1.04 3.39 0.82 1.89-0.25 3.11-1.73 1.23-1.49 1.7-3.89 0.47-2.41 0.09-5.4-0.4-3.1-1.55-5.25-1.15-2.16-2.76-3.2-1.61-1.05-3.41-0.82z"/>
			<path id="&lt;Compound Path&gt;" class="s1" d="m151.96 21.61l-0.07 0.58q-0.99-0.1-1.53 0.02-0.53 0.12-0.77 0.6-0.24 0.48-0.39 1.56l-1.95 14.37q-0.14 1.05-0.04 1.59 0.11 0.55 0.59 0.79 0.48 0.24 1.46 0.44l-0.08 0.58q-0.66-0.15-1.65-0.3-1-0.15-2.02-0.29-1.13-0.15-2.12-0.27-0.98-0.12-1.6-0.15l0.08-0.58q0.99 0.08 1.52-0.03 0.53-0.1 0.78-0.6 0.24-0.5 0.39-1.54l2.16-15.95 0.1 0.11-9.69 18.11-0.46-0.06-4.76-19.81-2.07 15.31q-0.14 1.04-0.04 1.66 0.11 0.62 0.64 0.95 0.54 0.32 1.66 0.53l-0.08 0.58q-0.51-0.13-1.35-0.26-0.84-0.13-1.59-0.23-0.73-0.1-1.47-0.18-0.74-0.09-1.24-0.1l0.08-0.58q0.99 0.08 1.53-0.1 0.54-0.18 0.8-0.75 0.25-0.57 0.39-1.61l1.91-14.09q0.15-1.07 0.04-1.6-0.1-0.53-0.59-0.79-0.48-0.26-1.46-0.42l0.08-0.58q0.49 0.09 1.22 0.22 0.74 0.13 1.46 0.23 0.64 0.09 1.33 0.15 0.68 0.06 1.15 0.1l4.23 18.23-0.52 0.16 8.89-16.6q0.35 0.05 0.68 0.1 0.33 0.04 0.68 0.09 1.02 0.14 2.02 0.24 1 0.11 1.67 0.17z"/>
			<path id="&lt;Compound Path&gt;" fill-rule="evenodd" class="s1" d="m166.35 26.81l-0.3 19.73q-0.02 1.2 0.36 1.75 0.38 0.54 0.8 0.75l-0.22 0.54q-0.52-0.27-1.3-0.61-0.78-0.33-1.57-0.65-1.05-0.43-1.98-0.79-0.93-0.36-1.52-0.54l0.22-0.54q1.41 0.51 1.96 0.24 0.55-0.26 0.57-1.87l0.14-5.12 1.25 0.51 0.22-0.54-1.46-0.59 0.26-9.32-6.4 6.83-0.2-0.09-0.49 0.43 0.26 0.11-2.27 2.43q-0.87 0.91-1.26 1.62-0.38 0.71-0.33 1.24 0.06 0.52 0.53 0.94 0.48 0.42 1.31 0.78l-0.22 0.55q-0.73-0.37-1.56-0.72-0.82-0.35-1.52-0.63-0.68-0.28-1.16-0.46-0.48-0.17-0.91-0.29l0.22-0.54q0.6 0.09 1.37-0.18 0.77-0.27 1.73-1.31l13.04-13.84q0.11 0.05 0.22 0.09 0.1 0.04 0.21 0.09zm-2.84 12.89l0.01-0.62-6.14-2.49-0.43 0.45z"/>
			<path id="&lt;Compound Path&gt;" class="s1" d="m184.3 36.03q1.22 0.8 1.67 1.5 0.45 0.7 0.72 1.36 0.18 0.37 0.31 0.57 0.12 0.21 0.29 0.32 0.25 0.16 0.53-0.03 0.29-0.2 0.72-0.69l0.56 0.37q-0.3 0.4-0.71 0.95-0.42 0.55-1.05 1.48-0.63 0.94-1.64 2.47l-0.56-0.37q0.69-1.22 0.96-2.58 0.27-1.37-0.12-2.6-0.4-1.24-1.76-2.14-1.3-0.86-2.66-0.63-1.36 0.23-2.19 1.5-0.73 1.1-0.65 2.21 0.07 1.12 0.61 2.34 0.55 1.21 1.2 2.62 0.76 1.62 1.24 3.04 0.48 1.42 0.45 2.73-0.04 1.31-0.91 2.63-1.03 1.56-2.41 2.12-1.39 0.56-2.9 0.3-1.51-0.26-2.93-1.19-1.29-0.85-1.86-1.65-0.56-0.79-0.89-1.46-0.31-0.7-0.6-0.89-0.25-0.16-0.54 0.04-0.28 0.19-0.71 0.68l-0.56-0.37q0.38-0.48 0.85-1.17 0.48-0.68 1.23-1.8 0.75-1.12 1.88-2.83l0.56 0.37q-0.87 1.53-1.25 3.1-0.39 1.57 0.05 2.96 0.43 1.39 1.99 2.42 0.81 0.53 1.75 0.67 0.94 0.15 1.88-0.27 0.93-0.41 1.69-1.56 0.66-1 0.67-2.06 0.02-1.06-0.41-2.27-0.43-1.21-1.13-2.65-0.68-1.47-1.2-2.86-0.52-1.39-0.48-2.75 0.03-1.36 0.93-2.73 0.95-1.44 2.22-1.96 1.27-0.51 2.62-0.27 1.34 0.24 2.54 1.03z"/>
		</g>
		<g id="&lt;Group&gt;">
			<path id="&lt;Compound Path&gt;" fill-rule="evenodd" class="s1" d="m59.58 176.55q3.49 4.36 3 8.22-0.48 3.86-4.55 7.11-2.65 2.12-5.46 2.67-2.81 0.55-5.48-0.54-2.67-1.1-4.91-3.89-0.3-0.37-0.76-1-0.46-0.62-0.96-1.28-0.51-0.65-0.94-1.19-0.68-0.85-1.35-1.67-0.68-0.82-1.13-1.29l0.48-0.39q0.71 0.79 1.2 1.1 0.49 0.31 1.04 0.1 0.56-0.2 1.43-0.9l12.07-9.66q0.9-0.72 1.21-1.21 0.31-0.48 0.13-1.03-0.18-0.56-0.82-1.4l0.49-0.39q0.38 0.53 1 1.38 0.63 0.86 1.3 1.64 0.7 0.84 1.58 1.89 0.88 1.05 1.43 1.73zm-0.92-0.26q-0.9-1.12-1.59-1.13-0.68-0.01-1.95 1.01l-12.16 9.73q-1.27 1.01-1.4 1.7-0.13 0.68 0.76 1.8 2.12 2.65 4.26 3.34 2.12 0.7 4.44-0.2 2.32-0.9 4.97-3.02 2.72-2.18 4-4.26 1.27-2.07 0.98-4.25-0.29-2.19-2.31-4.72z"/>
			<path id="&lt;Compound Path&gt;" fill-rule="evenodd" class="s1" d="m79.86 195.77q-0.78 0.78-1.45 1.55-0.68 0.78-1.01 1.2-0.34 0.44-0.64 0.86-0.29 0.42-0.48 0.71l-0.56-0.44q0.99-1.56 1.39-2.62 0.4-1.05 0.03-1.92-0.37-0.87-1.66-1.89l-2.03-1.61q-0.83-0.65-1.37-0.86-0.53-0.2-1.02 0.11-0.48 0.31-1.2 1.22l-4.56 5.76-0.73-0.58-0.39 0.49 0.73 0.58-4.64 5.87q-0.69 0.88-0.89 1.43-0.21 0.56 0.12 1.03 0.32 0.48 1.15 1.13l1.78 1.42q1.54 1.21 2.67 1.43 1.12 0.21 2.22-0.45 1.1-0.66 2.54-2.14l0.57 0.44q-0.6 0.61-1.47 1.71-0.37 0.46-1.02 1.36-0.65 0.89-1.28 1.9-1.21-1.03-2.77-2.28-1.55-1.25-2.77-2.22-0.54-0.43-1.38-1.09-0.85-0.67-1.83-1.43-0.99-0.76-2-1.54-1.02-0.78-1.94-1.47l0.39-0.49q0.87 0.61 1.41 0.8 0.54 0.19 1.04-0.13 0.49-0.33 1.19-1.21l9.59-12.12q0.72-0.91 0.91-1.45 0.19-0.54-0.11-1.04-0.31-0.5-1.12-1.18l0.39-0.49q0.88 0.74 1.88 1.55 0.99 0.8 1.96 1.59 0.96 0.78 1.81 1.45 0.84 0.67 1.38 1.09 1.12 0.89 2.56 2.01 1.44 1.12 2.61 1.96zm-14.95 2.56l0.39-0.49 1.61 1.28-0.38 0.49zm4.12 2.47l-0.38 0.49-2.13-1.68q1.08 0.85 1.15 1.68 0.08 0.83-0.38 1.69-0.45 0.85-0.98 1.71l0.57 0.44q1-1.47 1.56-2.22 0.55-0.75 1.04-1.36 0.48-0.62 1.05-1.36 0.56-0.74 1.76-2.06l-0.56-0.44q-0.42 0.38-0.93 0.87-0.51 0.49-1.11 0.85-0.6 0.36-1.29 0.35-0.69-0.01-1.49-0.64z"/>
			<path id="&lt;Compound Path&gt;" class="s1" d="m88.5 200.8q0.6 0.27 1.58 0.68 0.98 0.41 1.94 0.79 1.36 0.53 2.62 0.98 1.26 0.46 1.78 0.66 3.52 1.37 4.64 3.64 1.13 2.28 0.15 4.8-0.41 1.05-1.2 2.06-0.8 1.01-2.03 1.65-1.24 0.64-2.96 0.68-1.72 0.03-3.98-0.85l-2.79-1.08 0.23-0.58 2.49 0.97q2.07 0.8 3.46 0.44 1.39-0.36 2.28-1.49 0.89-1.12 1.47-2.61 1.07-2.76 0.51-4.54-0.56-1.79-3.21-2.82-1.33-0.52-1.93-0.18-0.6 0.34-1.19 1.85l-5.59 14.41q-0.4 1.04-0.39 1.65 0.02 0.61 0.59 1.03 0.57 0.42 1.77 0.95l-0.23 0.58q-0.73-0.35-1.89-0.81-1.16-0.47-2.35-0.93-1.13-0.44-2.12-0.81-1-0.37-1.63-0.55l0.23-0.58q1.01 0.33 1.58 0.35 0.58 0.02 0.96-0.43 0.37-0.46 0.78-1.5l5.59-14.41q0.42-1.08 0.44-1.65 0.03-0.58-0.41-0.97-0.43-0.38-1.41-0.79z"/>
			<path id="&lt;Compound Path&gt;" fill-rule="evenodd" class="s1" d="m112.04 207.95l4.16 20.61q0.26 1.25 0.78 1.73 0.52 0.49 1.01 0.6l-0.11 0.62q-0.61-0.17-1.49-0.34-0.89-0.17-1.78-0.32-1.2-0.21-2.25-0.38-1.04-0.16-1.7-0.21l0.11-0.61q1.57 0.21 2.09-0.2 0.51-0.4 0.16-2.07l-1.01-5.36 1.42 0.24 0.11-0.61-1.65-0.29-1.85-9.76-5.11 8.56-0.24-0.04-0.41 0.56 0.3 0.06-1.81 3.03q-0.71 1.15-0.94 1.98-0.24 0.83-0.06 1.36 0.17 0.54 0.76 0.86 0.6 0.33 1.54 0.52l-0.1 0.62q-0.85-0.21-1.79-0.39-0.93-0.18-1.73-0.32-0.77-0.13-1.31-0.21-0.54-0.07-1.01-0.09l0.11-0.62q0.64-0.04 1.38-0.5 0.74-0.46 1.51-1.75l10.42-17.36q0.13 0.02 0.25 0.04 0.12 0.02 0.24 0.04zm-0.03 14.07l-0.12-0.66-6.96-1.2-0.35 0.58z"/>
			<path id="&lt;Compound Path&gt;" class="s1" d="m121.06 209.59q0.65 0 1.71-0.01 1.06-0.02 2.09-0.06 1.46-0.06 2.8-0.15 1.34-0.09 1.9-0.11 2.52-0.11 4.22 0.54 1.69 0.64 2.57 1.84 0.88 1.19 0.94 2.72 0.04 0.93-0.29 2.01-0.32 1.07-1.2 2.04-0.88 0.98-2.44 1.65-1.57 0.67-4 0.78l-2.98 0.12-0.03-0.62 2.68-0.11q2.21-0.1 3.35-0.85 1.13-0.75 1.5-1.93 0.38-1.19 0.31-2.62-0.1-2.46-1.32-3.76-1.23-1.31-4.06-1.19-1.44 0.06-1.85 0.61-0.41 0.55-0.34 2.17l0.65 15.44q0.05 1.12 0.26 1.67 0.21 0.56 0.76 0.72 0.55 0.16 1.62 0.18l0.02 0.62q-0.72-0.03-1.79 0-1.08 0.03-2.17 0.08-1.21 0.05-2.27 0.11-1.06 0.06-1.71 0.15l-0.02-0.62q1.05-0.11 1.59-0.32 0.54-0.21 0.7-0.78 0.16-0.57 0.11-1.69l-0.65-15.44q-0.05-1.15-0.26-1.69-0.21-0.54-0.76-0.72-0.56-0.17-1.62-0.16zm5.42 10.84q1.69-0.01 2.66 0.03 0.96 0.04 1.57 0.07 0.61 0.04 1.18 0.11 2.1 0.25 3.06 1.13 0.95 0.88 1.47 2.8l0.92 3.14q0.36 1.36 0.72 1.95 0.35 0.59 1.03 0.53 0.53-0.05 0.88-0.38 0.34-0.32 0.72-0.87l0.49 0.32q-0.62 0.99-1.3 1.54-0.68 0.54-1.95 0.6-1.15 0.04-2.05-0.6-0.91-0.65-1.43-2.63l-0.81-3.08q-0.34-1.33-0.74-2.29-0.4-0.97-1.06-1.5-0.66-0.54-1.91-0.48l-3.36 0.14z"/>
			<path id="&lt;Compound Path&gt;" fill-rule="evenodd" class="s1" d="m148.47 206.16l12.47 16.93q0.76 1.02 1.43 1.24 0.68 0.22 1.17 0.12l0.16 0.6q-0.62 0.1-1.49 0.32-0.88 0.23-1.75 0.46-1.18 0.32-2.19 0.61-1.02 0.29-1.64 0.53l-0.16-0.61q1.52-0.47 1.81-1.05 0.29-0.58-0.72-1.95l-3.19-4.44 1.4-0.37-0.16-0.61-1.62 0.44-5.8-8.06-1.02 9.91-0.23 0.06-0.13 0.69 0.29-0.08-0.36 3.52q-0.16 1.33-0.02 2.18 0.13 0.85 0.52 1.27 0.38 0.41 1.06 0.45 0.67 0.04 1.61-0.18l0.16 0.6q-0.85 0.17-1.78 0.4-0.92 0.24-1.7 0.45-0.75 0.2-1.27 0.36-0.53 0.16-0.96 0.34l-0.16-0.6q0.56-0.31 1.04-1.04 0.48-0.73 0.62-2.22l2.13-20.14q0.12-0.04 0.24-0.07 0.12-0.03 0.24-0.06zm5.9 12.76l-0.38-0.54-6.82 1.85-0.07 0.67z"/>
			<path id="&lt;Compound Path&gt;" class="s1" d="m166.39 198.6q1.82-0.97 3.27-1.06 1.45-0.09 2.74 0.13 0.77 0.12 0.89-0.35 0.12-0.47-0.4-1.71l0.63-0.34q0.49 1.05 1.24 2.52 0.76 1.47 2.04 3.86l-0.64 0.34q-0.82-1.08-1.36-1.69-0.54-0.62-1.04-0.98-0.5-0.37-1.15-0.66-1.45-0.67-3.02-0.49-1.56 0.19-2.99 0.95-1.34 0.72-2.07 1.98-0.72 1.25-0.83 2.93-0.1 1.69 0.43 3.7 0.53 2.01 1.72 4.24 1.24 2.31 2.65 3.83 1.42 1.52 2.91 2.28 1.48 0.76 2.95 0.77 1.47 0 2.79-0.7 1.24-0.67 2.32-1.88 1.08-1.22 1.26-2.73 0.18-1.12-0.09-2.18-0.27-1.06-0.97-2.84l0.63-0.33q1.34 2.5 2.18 4.01 0.85 1.51 1.46 2.52l-0.63 0.34q-0.74-1.12-1.16-1.29-0.43-0.16-0.83 0.55-0.63 1.26-1.48 2.4-0.86 1.15-2.64 2.11-2.61 1.4-5.21 1.27-2.59-0.13-4.87-1.77-2.28-1.65-3.96-4.78-1.65-3.08-1.76-5.99-0.11-2.91 1.17-5.25 1.27-2.34 3.82-3.71z"/>
			<path id="&lt;Compound Path&gt;" fill-rule="evenodd" class="s1" d="m181.72 188.15l18.65 9.72q1.13 0.58 1.83 0.49 0.71-0.1 1.1-0.41l0.41 0.47q-0.51 0.37-1.2 0.95-0.69 0.59-1.37 1.18-0.91 0.8-1.7 1.51-0.78 0.71-1.23 1.19l-0.41-0.47q1.15-1.09 1.16-1.74 0.01-0.65-1.51-1.44l-4.81-2.58 1.09-0.95-0.41-0.47-1.26 1.11-8.76-4.7 3.45 9.36-0.18 0.15 0.18 0.67 0.23-0.2 1.22 3.33q0.45 1.26 0.94 1.97 0.5 0.7 1.03 0.9 0.52 0.2 1.15-0.05 0.62-0.26 1.37-0.88l0.41 0.47q-0.7 0.53-1.42 1.15-0.73 0.61-1.34 1.15-0.58 0.51-0.98 0.88-0.4 0.37-0.71 0.73l-0.41-0.47q0.36-0.53 0.48-1.39 0.11-0.87-0.42-2.27l-6.95-19.03q0.09-0.08 0.19-0.16 0.09-0.08 0.18-0.17zm10.92 8.87l-0.58-0.31-5.31 4.66 0.23 0.62z"/>
			<path id="&lt;Compound Path&gt;" class="s1" d="m192.77 176.04q0.94-1.24 1.71-1.67 0.78-0.43 1.5-0.67 0.4-0.16 0.63-0.28 0.23-0.12 0.36-0.3 0.19-0.25 0-0.57-0.19-0.31-0.68-0.8l0.43-0.57q0.41 0.34 0.96 0.82 0.56 0.48 1.51 1.22 0.94 0.73 2.51 1.92l-0.43 0.57q-1.25-0.83-2.69-1.21-1.43-0.38-2.77-0.05-1.35 0.33-2.4 1.72-1 1.32-0.85 2.78 0.14 1.46 1.44 2.44 1.11 0.84 2.31 0.84 1.19 0.01 2.52-0.49 1.33-0.49 2.87-1.09 1.78-0.68 3.32-1.1 1.55-0.41 2.93-0.28 1.39 0.13 2.73 1.15 1.59 1.2 2.09 2.71 0.5 1.51 0.12 3.1-0.39 1.59-1.48 3.03-0.99 1.31-1.88 1.86-0.88 0.54-1.61 0.84-0.77 0.29-0.99 0.59-0.19 0.25 0 0.56 0.19 0.32 0.68 0.81l-0.43 0.57q-0.49-0.44-1.19-0.99-0.7-0.55-1.83-1.43-1.13-0.88-2.87-2.19l0.43-0.57q1.57 1.03 3.21 1.54 1.64 0.52 3.14 0.16 1.51-0.37 2.71-1.96 0.62-0.82 0.84-1.8 0.22-0.99-0.15-2.02-0.38-1.02-1.54-1.91-1.02-0.77-2.15-0.86-1.12-0.09-2.44 0.28-1.32 0.38-2.9 1.02-1.6 0.62-3.12 1.07-1.51 0.46-2.96 0.32-1.44-0.13-2.83-1.19-1.47-1.11-1.92-2.49-0.46-1.38-0.11-2.8 0.35-1.41 1.27-2.63z"/>
		</g>
	</g>
	<g id="&lt;Group&gt;">
		<path id="&lt;Path&gt;" class="s1" d="m153.85 176.24c-2.76 0.52-5.32 2.21-8.18 2.41q-0.61 0.04-1.19 0.01c-0.83-0.38-1.84-0.89-2.26-1.05-2.9-1.09-5.22-1.42-8.29-0.79-2.13 0.43-2.45 0.52-5.01-0.97-2.24-0.53-4.89-0.95-7.1 0.02q-0.03 0.13-0.07 0.19c-0.64 0.95-1.95 0.57-3.46 0.43-4.8-0.42-7.23 3.32-12.6 1.87-4.94-1.33-5.8-2.15-11.15-0.61-2.18 0.63-6.54 2.58-8.57 2.58h-2.2c-0.06 0-1.17-0.56-0.76-0.07 5.26 2.2 10.65-1.24 15.95-0.61 2.23 1.5 5.06 2.08 7.74 1.87 3.68-0.29 7-2.45 10.76-1.36 3.69 1.06 5.43 2.79 9.75 2.19 3.36-0.47 6.29-2.84 9.65-2.6 2.32 0.17 4.58 1.62 7.02 1.79 5.54 0.41 8.62-3.35 13.63-3.72 1.97-0.14 4.72 0.19 6.65 0.64 0.66 0.16 1.28 0.45 1.95 0.6-3.32-2.3-8.25-3.59-12.26-2.82z"/>
		<path id="&lt;Compound Path&gt;" fill-rule="evenodd" class="s1" d="m135.03 97.37c-0.17 2.47-1.77 4.33-3.59 4.15q-0.17-0.03-0.34-0.08c-0.63 0.12-1.2 0.28-1.89 0.97-1.07 1.07-1.67 4.44-1.67 4.44-0.14 1.1 0.19 29.66 0.43 31.51 0 0 0.06 1.13 0.15 2.99l2.79 0.02c-0.08 1.35-0.15 2.76-0.09 4.15l-2.47 0.08c0.59 11.4 1.69 32.24 1.72 32.26q0.04 0.02 0.08 0.04c-3.39-0.8-7.38-1.43-10.71 0.03 0.84-2.75 1.76-21.51 2.23-32.54l-3.56-0.09q0-1.97 0-3.92l3.73-0.02c0.1-2.47 0.16-4.01 0.16-4.01 0.46-4.82 0.64-26.81 0.4-29.29q-0.02 0-0.04 0c-0.2-2.19-0.64-4.11-1.54-5.2-0.94-1.14-2.01-1.34-3.04-1.64q0.01-0.01 0.03-0.01-0.18 0.02-0.36 0.01c-1.81-0.18-3.15-2.32-2.98-4.79 0.17-2.47 1.77-4.32 3.59-4.15 1.81 0.18 3.15 2.32 2.98 4.79q-0.05 0.67-0.24 1.27c0.13 0.64 0.44 1.24 1.27 1.82l0.22-0.11-0.13-15.93h-1.28c0-1.15 0-2.3 0-3.51h1.25l-0.08-12c-0.95 0.03-2.02-0.24-3-0.86-2.09-1.31-3-3.62-2.03-5.16 0.79-1.27 2.6-1.6 4.38-0.96 0.27-1.99 1.53-3.51 3.09-3.55 1.7-0.06 3.13 1.65 3.38 3.89 2-1.06 4.24-0.83 5.15 0.62 0.96 1.54 0.05 3.85-2.03 5.16-1.22 0.77-2.57 1.01-3.68 0.78l0.08 12.08h0.87c0 1.11 0 2.36 0 3.51h-0.84l0.14 16.06c0.19-0.03 0.42-0.16 0.53-0.24 0.34-0.27 0.54-0.61 0.66-0.97-0.23-0.68-0.35-1.43-0.29-2.23 0.16-2.47 1.77-4.33 3.59-4.16 1.81 0.18 3.15 2.32 2.98 4.79zm-17.26-2.19c0.06-0.64-0.22-1.2-0.62-1.25-0.4-0.05-0.77 0.43-0.84 1.07-0.06 0.64 0.22 1.2 0.62 1.25 0.41 0.05 0.78-0.43 0.84-1.07zm12.29-29.81c0.26 0.31 0.88 0.25 1.39-0.14 0.51-0.39 0.72-0.96 0.46-1.28-0.26-0.31-0.88-0.25-1.39 0.14-0.51 0.39-0.71 0.96-0.46 1.28zm-10.55-1.28c-0.51-0.39-1.13-0.45-1.39-0.14-0.25 0.32-0.05 0.89 0.46 1.28 0.51 0.39 1.13 0.45 1.39 0.14 0.26-0.32 0.05-0.89-0.46-1.28zm12.25 31.39c0.06-0.64-0.22-1.2-0.62-1.25-0.4-0.05-0.78 0.43-0.84 1.07-0.06 0.64 0.22 1.2 0.62 1.25 0.4 0.05 0.78-0.43 0.84-1.07zm-5.78-34.72c-0.08-0.64-0.47-1.1-0.87-1.04-0.4 0.06-0.66 0.63-0.58 1.27 0.08 0.64 0.47 1.1 0.87 1.04 0.4-0.06 0.66-0.63 0.58-1.27z"/>
		<path id="&lt;Compound Path&gt;" fill-rule="evenodd" class="s1" d="m141.32 81.64c-1.6 1-3.42 1.12-4.62 0.43-1.37 1.27-3.19 2.05-5.2 2.05h-3.24c0-1.15 0-2.4 0-3.51h3.24c1.22 0 2.31-0.53 3.07-1.37-1.1-0.74-1.83-2.3-1.78-4.09 0.08-2.46 1.62-4.41 3.43-4.36 1.82 0.06 3.23 2.1 3.16 4.57q0 0.01-0.01 0.02c1.65-0.46 3.25-0.07 3.98 1.1 0.97 1.54 0.06 3.85-2.03 5.16zm-5.13-7.94c0.08-0.63-0.18-1.2-0.59-1.26-0.4-0.07-0.78 0.4-0.86 1.04-0.08 0.63 0.18 1.2 0.58 1.27 0.4 0.06 0.79-0.41 0.87-1.05zm6.05 4.14c-0.25-0.31-0.87-0.25-1.38 0.14-0.51 0.39-0.72 0.96-0.46 1.28 0.26 0.31 0.88 0.25 1.39-0.14 0.51-0.39 0.71-0.96 0.45-1.28z"/>
		<path id="&lt;Compound Path&gt;" fill-rule="evenodd" class="s1" d="m106.13 76.48c0.74-1.17 2.34-1.56 3.98-1.1q0-0.01 0-0.02c-0.08-2.47 1.33-4.51 3.15-4.57 1.82-0.05 3.35 1.9 3.43 4.36 0.06 1.79-0.68 3.35-1.78 4.09 0.77 0.84 1.86 1.37 3.08 1.37h3.24c0 1.11 0 2.36 0 3.51h-3.24c-2.01 0-3.83-0.78-5.2-2.05-1.2 0.69-3.03 0.57-4.63-0.43-2.08-1.31-2.99-3.62-2.03-5.16zm8.04-1.73c0.4-0.07 0.66-0.64 0.58-1.27-0.08-0.64-0.47-1.11-0.87-1.04-0.4 0.06-0.66 0.63-0.58 1.26 0.08 0.64 0.47 1.11 0.87 1.05zm-6.47 4.37c0.51 0.39 1.13 0.45 1.39 0.14 0.25-0.32 0.05-0.89-0.46-1.28-0.51-0.39-1.13-0.45-1.39-0.14-0.26 0.32-0.05 0.89 0.46 1.28z"/>
		<path id="&lt;Compound Path&gt;" fill-rule="evenodd" class="s1" d="m121.99 141.38c0 1.31-3.24 2.6-3.24 3.92l-21.48-0.47c-5.12 0-9.47-3.32-11.04-7.92-1.77-1.88-3.28-3.94-4.36-6.51-0.3-0.71-0.71-2.54-1.06-3.04-0.09-0.13-1.15-0.62-1.49-0.91-1.59-1.35-2.2-3.98-1.5-5.93 0.44-1.24 1.28-1.24 0.17-2.63-0.74-0.93-1.88-1.08-2.8-1.78 0.1-0.66 0.87-0.06 1.33-0.22-0.26-0.87-3.67-2.33-3.69-2.87-0.02-0.58 1.26 0.39 1.47 0.14-0.78-1.1-2.66-2.09-3.25-3.23-0.08-0.15-0.28-0.43-0.07-0.53l1.26 0.52c-0.3-0.83-2.27-2.62-2.21-3.4 0.04-0.7 1.01 0.53 1.17 0.37-0.25-1.43-1.58-2.65-1.25-4.13l0.96 1.03c0.22-1.8-0.91-3.58-0.15-5.32l0.74 1.48c0.22-0.62 0.44-4.72 0.96-4.72l0.51 0.88c0.57-1.15 0.45-2.79 1.08-3.87 0.48-0.84 0.62-0.03 0.55 0.62 0.32 0.45 1.32-3.68 1.48-3.84 0.42-0.4 0.28 1.07 0.29 1.18 0.33 0.45 1.1-3.12 1.18-3.32 0.12-0.34 0.31-0.99 0.74-0.96 0.24 0.27-0.54 1.59 0.15 1.48 0.29-0.33 1.73-4.98 2.06-4.72l0.3 0.88c-0.02-0.29 1.23-3.68 1.48-3.39l0.29 0.59c0.05-0.48 1.04-2.63 1.41-2.66 0.39-0.04-0.22 0.97 0.36 0.74 0.18-0.52 2.1-3.1 2.5-2.78 0.05 0.04-0.05 0.28 0.09 0.27 1.31-1.08 4.19-2.07 4.35 0.44-0.24-0.03-0.15-0.36-0.35-0.6-0.78-0.95-1.86-0.21-2.45 0.53l0.29 0.44-1.92 1.77c0.07 0.23 1.1-0.34 0.89 0.15l-2.21 1.77c0.16 0.27 1.19-0.53 1.17 0-0.01 0.27-2.49 1.81-2.5 2.07-0.02 0.44 1.02-0.33 1.18 0l-2.07 1.92c0.32 0.3 1.01-0.82 1.03-0.15l-2.21 2.51c-0.08 0.66 1.01-0.62 1.03 0 0.01 0.5-1.67 1.8-1.92 2.36-0.27 0.62 0.8-0.33 0.89-0.22 0.28 0.68-2.07 2.63-1.77 2.95 0.11 0.07 1.2-0.87 1.03-0.22-0.25 0.91-1.74 1.96-2.06 2.95 0.2 0.27 1.14-1.01 1.17-0.29 0.03 0.58-2.39 2.63-1.91 3.17 0.17 0.08 1.13-0.89 1.03-0.22-0.17 1.19-1.37 2.66-1.67 3.79-0.1 0.37-0.22 1.16-0.22 1.53 0 0.12 0.05 0.81 0.26 0.81 0.08-0.58 0.38-1.31 0.89-1.63-0.07 2.03-0.98 3.9-0.29 5.91 0.36 0.07 0.55-1.59 0.88-1.18 0.06 1.64-0.54 3.05-0.14 4.72 0.36-0.07 0.43-1.83 0.75-0.97 0.41 1.08-0.27 1.86-0.3 2.84-0.02 0.49 0.24 1 0.14 1.53 0.43-0.15 0.34-0.93 0.88-0.89 0.04 1.53-0.76 2.72-0.2 4.26 0.25 0.66 0.64 0.5 1.08 0.85 1.75 1.38 2.24 4.01 1.51 6.07-0.15 0.41-0.69 1.12-0.72 1.46-0.04 0.36 0.34 1.69 0.47 2.13 0.8 2.71 2.46 5.16 4.5 7.08-0.45-1.45-1.02-2.99-1.16-4.52-0.11-1.33 0.17-3.01-0.03-4.25-0.09-0.6-0.76-1.47-0.95-2.15-0.48-1.77-0.06-3.92 1.34-5.17 0.3-0.27 0.87-0.41 0.95-0.81 0.28-1.43-1.05-2.12-1.03-3.47 0.25-0.28 1.14 1.41 1.18 0.67 0-0.08-0.47-1.31-0.56-1.51-0.23-0.52-0.85-1.22-0.92-1.74-0.04-0.3 0.15-0.29 0.36-0.21 0.39 0.16 0.22 0.66 0.68 0.57 0.19-0.86-1.41-2.21-1.46-2.75-0.06-0.62 0.57-0.03 0.86 0.1 0.32-0.42-1.52-2.05-1.62-2.58-0.11-0.58 0.83 0.17 0.96 0.21 0.11 0.03 0.1-0.15 0.07-0.21-0.17-0.42-2.16-2.34-1.77-2.74 0.22-0.21 1.22 0.85 1.04 0.23-0.26-0.89-1.61-1.86-1.63-2.96 0.5-0.24 0.71 0.49 1.04 0.67-0.05-1.46-1.42-2.56-1.18-4.06 0.57 0.02 0.43 0.9 0.88 1.1 0.1-0.95-0.74-1.62-0.74-2.51l0.74 0.89c0-1.2-0.5-2.37-0.29-3.55 0.47 0.13 0.19 1 0.73 0.89v-3.03c0-0.08 0.29-0.66 0.37-0.66l0.37 0.88c0.21-0.96 0.48-2.21 1.01-3.05 0.14-0.23 0.49-0.86 0.76-0.42-0.67 0.93-0.38 2.11-0.44 3.18l0.74-0.74c0.1 1.12-0.58 2.12-0.44 3.25 0.27-0.01 0.7-1.57 0.88-0.81 0.15 0.65-0.74 2.34-0.44 3.17l0.88-1.03c0.24 1.16-0.46 2.31 0.01 3.54 0.37-0.03 0.27-1.37 0.73-1.03 0.35 0.25-0.41 3.49 0.74 3.99l0.15-1.63c0.7 0.54 0.48 1.61 0.66 2.37 0.2 0.86 0.53 1.67 0.82 2.5 0.31-0.08 0.21-1.09 0.29-1.18 0.2-0.22 0.27 0.08 0.34 0.19 0.6 0.83 0.19 1.74 0.25 2.7 0.06 1.07 0.43 1.82 0.59 0.21 0.98 0.22 0.19 1.69 0.04 2.33-0.38 1.68-0.25 1.74 0.85 0.48 0.22 1.2-1.03 2.17-1.33 3.18-0.2 0.67 1.21-0.78 0.97 0.22-0.22 0.89-1.74 1.65-2 2.43-0.16 0.46 0.97-0.27 1.1-0.08 0.94 0.11-1.93 1.67-2.06 1.78-0.16 0.14-0.79 0.83-0.79 0.96 0 0.05 0.48 0.56 0.6 0.85 0.7 1.78 0.08 4.13-1.22 5.49-0.62 0.65-1.21 0.59-1.46 1.64-0.68 2.92 0.36 7.91 2.5 10.1v-3.32c0-1.31 1.21-2.93 1.44-4.02 0.15-0.71-0.18-1.52-0.11-2.33 0.14-1.68 1.3-3.69 2.91-4.32 0.73-0.28 1.39-0.12 1.84-0.81 0.82-1.25 0.13-2.59 0.27-3.95 0.27-0.3 0.77 0.97 0.74 1.18 0.33-0.19 0.45-1.3 0.44-1.69-0.01-0.91-0.08-1.25-0.01-2.23 0.08-1.12-0.04-3.36 0.75-0.8 0.96-0.96 0.15-2.63 0.14-3.76 0-0.12 0.12-0.93 0.15-0.97 0.39-0.45 0.6 1.47 0.81 1.48q0.09-0.01 0.14-0.12-0.03-0.14 0.02-0.29 0.07-1.71 0.15-3.41 0.46 0.48 0.8 1.05v-1.95c0.22 0.1 0.46 0.79 0.56 0.2 0.14-0.74-0.81-2.12-0.41-3.01 0.47 0.17 0.4 1.06 0.88 1.11 0.39-1.83-0.71-2.99-0.88-4.65 0.44 0.04 0.62 1.05 1.03 0.81-0.16-1.12-1.16-2.04-1.32-3.11-0.16-1.09 0.75 0.56 1.02 0.31-0.33-0.77-1.36-1.7-1.47-2.52-0.04-0.27 0.17-0.32 0.29-0.22 0.04 0.04 0.1 0.47 0.38 0.59 0.18 0.08 0.27-0.02 0.21-0.21-0.17-0.58-1.24-1.23-1.46-2.23-0.15-0.66 0.71 0.44 0.87 0.16-0.33-0.79-1.3-1.79-1.18-2.66 0.06-0.45 0.56 0.53 0.74 0.51 0.03-1.05-0.77-1.87-0.59-2.95l0.59 0.44c-0.28-0.45 0.48-4.61 1.33-3.83 0.13 0.12-0.32 0.54-0.37 0.73-0.44 1.38 0.25 2.48 0.37 3.84l0.59-1.03c0.03 0.46-0.03 0.94 0 1.4 0.02 0.24 0.27 2.68 0.59 2.44l0.22-1.03c0.9 1.01 0.11 2.7 1.26 3.54v-1.18c0.8 0.31 0.23 2.28 0.59 2.65 0.38 0.41 0.31-0.92 0.3-1.03 1 1 0.81 2.71 1.32 3.99 0.43-0.01 0.22-1.92 0.72-1.09 0.61 0.99-0.06 2.44 0.47 3.6 0.33 0.02 0.49-1.93 0.85-1.08 0.42 1.04-0.16 1.8-0.25 2.79-0.01 0.15-0.09 1.29 0.28 1.02 0.58-1.19 1.2-1.17 0.75 0.3-0.17 0.52-0.54 0.99-0.69 1.54-0.06 0.25-0.3 1.43 0.09 1.26 0.16-0.07 1.03-1.32 1.18-0.59 0.16 0.82-2.04 2.56-1.92 3.62 0.11 0.12 1.44-1.02 1.47-0.37 0.02 0.46-2.38 2.05-2.21 2.88 0.11 0.11 1.6-0.81 1.11 0.14-0.37 0.71-2.09 1.26-2.44 2.15-0.24 0.61 1.59-0.48 1.33 0.14-0.33 0.8-2.69 1.65-3.25 2.51 0.39 0.14 0.82-0.07 1.25-0.08 0.17 0 0.42-0.08 0.38 0.15l-4.07 2.22-0.07 0.29 1.33 0.01c0.05 0.25-0.07 0.3-0.24 0.42-0.94 0.65-2.47 0.34-3.52 1.35-0.91 0.88-0.17 1.12-0.11 2.03 0.11 1.78-1.25 3.99-2.86 4.74-1.3 0.6-2.04 0.1-2.99 1.45-1.31 1.88-1.66 5.28-0.59 7.33 0.06 0.1 0.33 0.51 0.58 0.78l0.01 0.06c1.27 0.77 2.75 1.23 4.34 1.23zm-28.33-14.52c0.3 0.24 0.84 0.04 1.21-0.45 0.36-0.49 0.42-1.08 0.12-1.32-0.31-0.24-0.85-0.04-1.21 0.45-0.37 0.49-0.42 1.08-0.12 1.32zm-13.65-4.77c-0.03-0.61-0.37-1.1-0.76-1.09-0.38 0.01-0.67 0.52-0.63 1.13 0.03 0.61 0.37 1.09 0.75 1.08 0.39-0.01 0.67-0.51 0.64-1.12zm7.69 0.04c0.18-0.58 0.03-1.15-0.33-1.28-0.37-0.12-0.81 0.25-0.99 0.83-0.18 0.59-0.03 1.16 0.34 1.29 0.36 0.12 0.8-0.25 0.98-0.84z"/>
		<path id="&lt;Compound Path&gt;" fill-rule="evenodd" class="s1" d="m152.85 141.49c1.6 0 3.08-0.46 4.34-1.23l0.01-0.06c0.26-0.27 0.53-0.68 0.58-0.78 1.07-2.05 0.73-5.45-0.59-7.33-0.94-1.35-1.68-0.85-2.98-1.45-1.61-0.75-2.97-2.96-2.86-4.74 0.05-0.91 0.8-1.15-0.11-2.03-1.05-1.01-2.59-0.7-3.53-1.35-0.17-0.12-0.29-0.17-0.24-0.42l1.33-0.01-0.07-0.29-4.06-2.22c-0.04-0.23 0.21-0.15 0.37-0.15 0.44 0.01 0.86 0.22 1.25 0.08-0.55-0.86-2.91-1.71-3.25-2.51-0.25-0.62 1.57 0.47 1.33-0.14-0.34-0.89-2.07-1.44-2.43-2.15-0.49-0.95 1-0.03 1.1-0.14 0.17-0.83-2.23-2.42-2.21-2.88 0.03-0.65 1.36 0.49 1.47 0.37 0.12-1.06-2.08-2.8-1.91-3.62 0.14-0.73 1.01 0.52 1.18 0.59 0.39 0.17 0.15-1.01 0.08-1.26-0.14-0.55-0.52-1.02-0.68-1.54-0.46-1.47 0.16-1.49 0.74-0.3 0.37 0.27 0.29-0.87 0.28-1.02-0.08-0.99-0.67-1.75-0.24-2.79 0.35-0.85 0.52 1.1 0.85 1.08 0.52-1.16-0.14-2.61 0.46-3.6 0.51-0.83 0.29 1.08 0.72 1.09 0.51-1.28 0.33-2.99 1.33-3.99-0.02 0.11-0.09 1.44 0.29 1.03 0.36-0.37-0.2-2.34 0.59-2.65l0.01 1.18c1.14-0.84 0.35-2.53 1.25-3.54l0.22 1.03c0.33 0.24 0.57-2.2 0.59-2.44 0.04-0.46-0.02-0.94 0-1.4l0.59 1.03c0.13-1.36 0.81-2.46 0.38-3.84-0.06-0.19-0.51-0.61-0.38-0.73 0.85-0.78 1.61 3.38 1.33 3.83l0.59-0.44c0.18 1.08-0.61 1.9-0.59 2.95 0.18 0.02 0.68-0.96 0.74-0.51 0.12 0.87-0.84 1.87-1.18 2.66 0.16 0.28 1.03-0.82 0.88-0.16-0.23 1-1.3 1.65-1.47 2.23-0.05 0.19 0.04 0.29 0.22 0.21 0.28-0.12 0.33-0.55 0.37-0.59 0.12-0.1 0.33-0.05 0.29 0.22-0.11 0.82-1.13 1.75-1.47 2.52 0.27 0.25 1.18-1.4 1.02-0.31-0.16 1.07-1.16 1.99-1.32 3.11 0.41 0.24 0.6-0.77 1.04-0.81-0.18 1.66-1.28 2.82-0.89 4.65 0.48-0.05 0.41-0.94 0.89-1.11 0.4 0.89-0.55 2.27-0.42 3.01 0.11 0.59 0.35-0.1 0.56-0.2v1.95q0.34-0.57 0.8-1.05 0.08 1.7 0.16 3.41 0.04 0.15 0.01 0.29 0.05 0.11 0.14 0.12c0.21-0.01 0.42-1.93 0.81-1.48 0.03 0.04 0.15 0.85 0.15 0.97 0 1.13-0.82 2.8 0.15 3.76 0.79-2.56 0.66-0.32 0.75 0.8 0.07 0.98-0.01 1.32-0.02 2.23 0 0.39 0.11 1.5 0.45 1.69-0.04-0.21 0.47-1.48 0.74-1.18 0.13 1.36-0.55 2.7 0.26 3.95 0.46 0.69 1.12 0.53 1.85 0.81 1.6 0.63 2.77 2.64 2.91 4.32 0.06 0.81-0.27 1.62-0.12 2.33 0.24 1.09 1.45 2.71 1.45 4.02v3.32c2.14-2.19 3.18-7.18 2.49-10.1-0.25-1.05-0.84-0.99-1.46-1.64-1.3-1.36-1.92-3.71-1.21-5.49 0.11-0.29 0.59-0.8 0.59-0.85 0-0.13-0.62-0.82-0.79-0.96-0.12-0.11-2.99-1.67-2.06-1.78 0.14-0.19 1.26 0.54 1.11 0.08-0.27-0.78-1.79-1.54-2-2.43-0.25-1 1.16 0.45 0.96-0.22-0.3-1.01-1.54-1.98-1.32-3.18 1.09 1.26 1.22 1.2 0.84-0.48-0.15-0.64-0.94-2.11 0.04-2.33 0.16 1.61 0.54 0.86 0.6-0.21 0.05-0.96-0.35-1.87 0.24-2.7 0.08-0.11 0.14-0.41 0.34-0.19 0.08 0.09-0.01 1.1 0.3 1.18 0.28-0.83 0.62-1.64 0.82-2.5 0.18-0.76-0.04-1.83 0.65-2.37l0.15 1.63c1.16-0.5 0.39-3.74 0.74-3.99 0.46-0.34 0.37 1 0.74 1.03 0.46-1.23-0.23-2.38 0-3.54l0.88 1.03c0.3-0.83-0.59-2.52-0.44-3.17 0.18-0.76 0.62 0.8 0.89 0.81 0.13-1.13-0.55-2.13-0.44-3.25l0.73 0.74c-0.05-1.07 0.24-2.25-0.44-3.18 0.27-0.44 0.62 0.19 0.77 0.42 0.52 0.84 0.8 2.09 1 3.05l0.37-0.88c0.08 0 0.37 0.58 0.37 0.66v3.03c0.54 0.11 0.26-0.76 0.74-0.89 0.21 1.18-0.29 2.35-0.3 3.55l0.74-0.89c0.01 0.89-0.83 1.56-0.74 2.51 0.45-0.2 0.31-1.08 0.89-1.1 0.23 1.5-1.13 2.6-1.18 4.06 0.33-0.18 0.54-0.91 1.03-0.67-0.01 1.1-1.37 2.07-1.62 2.96-0.18 0.62 0.82-0.44 1.03-0.23 0.4 0.4-1.6 2.32-1.77 2.74-0.03 0.06-0.04 0.24 0.07 0.21 0.13-0.04 1.07-0.79 0.96-0.21-0.1 0.53-1.94 2.16-1.62 2.58 0.29-0.13 0.93-0.72 0.87-0.1-0.05 0.54-1.65 1.89-1.46 2.75 0.45 0.09 0.29-0.41 0.68-0.57 0.2-0.08 0.39-0.09 0.35 0.21-0.07 0.52-0.68 1.22-0.91 1.74-0.09 0.2-0.56 1.43-0.56 1.51 0.03 0.74 0.92-0.95 1.17-0.67 0.03 1.35-1.31 2.04-1.03 3.47 0.08 0.4 0.65 0.54 0.96 0.81 1.39 1.25 1.81 3.4 1.33 5.17-0.19 0.68-0.86 1.55-0.95 2.15-0.2 1.24 0.09 2.92-0.03 4.25-0.13 1.53-0.71 3.07-1.16 4.52 2.04-1.92 3.7-4.37 4.5-7.08 0.13-0.44 0.51-1.77 0.48-2.13-0.04-0.34-0.58-1.05-0.73-1.46-0.73-2.06-0.24-4.69 1.52-6.07 0.44-0.35 0.83-0.19 1.07-0.85 0.57-1.54-0.24-2.73-0.2-4.26 0.55-0.04 0.46 0.74 0.89 0.89-0.1-0.53 0.15-1.04 0.14-1.53-0.04-0.98-0.71-1.76-0.3-2.84 0.32-0.86 0.39 0.9 0.75 0.97 0.4-1.67-0.21-3.08-0.15-4.72 0.33-0.41 0.52 1.25 0.89 1.18 0.68-2.01-0.23-3.88-0.3-5.91 0.52 0.32 0.81 1.05 0.89 1.63 0.21 0 0.27-0.69 0.26-0.81 0-0.37-0.12-1.16-0.21-1.53-0.3-1.13-1.51-2.6-1.68-3.79-0.09-0.67 0.87 0.3 1.04 0.22 0.47-0.54-1.94-2.59-1.92-3.17 0.03-0.72 0.98 0.56 1.18 0.29-0.33-0.99-1.81-2.04-2.06-2.95-0.18-0.65 0.91 0.29 1.03 0.22 0.3-0.32-2.06-2.27-1.77-2.95 0.09-0.11 1.15 0.84 0.88 0.22-0.25-0.56-1.93-1.86-1.91-2.36 0.01-0.62 1.1 0.66 1.02 0l-2.21-2.51c0.02-0.67 0.71 0.45 1.03 0.15l-2.06-1.92c0.16-0.33 1.2 0.44 1.17 0-0.01-0.26-2.49-1.8-2.5-2.07-0.02-0.53 1.01 0.27 1.18 0l-2.21-1.77c-0.21-0.49 0.82 0.08 0.88-0.15l-1.92-1.77 0.3-0.44c-0.59-0.74-1.67-1.48-2.45-0.53-0.2 0.24-0.11 0.57-0.36 0.6 0.16-2.51 3.04-1.52 4.36-0.44 0.13 0.01 0.04-0.23 0.09-0.27 0.39-0.32 2.31 2.26 2.49 2.78 0.58 0.23-0.03-0.78 0.37-0.74 0.36 0.03 1.36 2.18 1.4 2.66l0.3-0.59c0.24-0.29 1.5 3.1 1.48 3.39l0.29-0.88c0.34-0.26 1.77 4.39 2.07 4.72 0.68 0.11-0.09-1.21 0.14-1.48 0.44-0.03 0.63 0.62 0.75 0.96 0.07 0.2 0.84 3.77 1.17 3.32 0.01-0.11-0.12-1.58 0.3-1.18 0.16 0.16 1.16 4.29 1.47 3.84-0.07-0.65 0.07-1.46 0.56-0.62 0.62 1.08 0.5 2.72 1.07 3.87l0.52-0.88c0.51 0 0.73 4.1 0.96 4.72l0.73-1.48c0.76 1.74-0.36 3.52-0.14 5.32l0.96-1.03c0.32 1.48-1.01 2.7-1.26 4.13 0.17 0.16 1.13-1.07 1.18-0.37 0.05 0.78-1.91 2.57-2.21 3.4l1.25-0.52c0.21 0.1 0.01 0.38-0.06 0.53-0.6 1.14-2.47 2.13-3.26 3.23 0.21 0.25 1.49-0.72 1.47-0.14-0.02 0.54-3.43 2-3.68 2.87 0.45 0.16 1.23-0.44 1.32 0.22-0.91 0.7-2.05 0.85-2.8 1.78-1.1 1.39-0.27 1.39 0.17 2.63 0.7 1.95 0.09 4.58-1.5 5.93-0.34 0.29-1.39 0.78-1.49 0.91-0.35 0.5-0.76 2.33-1.05 3.04-1.09 2.57-2.6 4.63-4.37 6.51-1.56 4.6-5.91 7.92-11.04 7.92l-22.68 0.72c0-1.32 0.12-2.86 0.12-4.17zm3.5-15.96c-0.37-0.49-0.91-0.69-1.21-0.45-0.3 0.24-0.25 0.83 0.12 1.32 0.36 0.49 0.9 0.69 1.21 0.45 0.3-0.24 0.24-0.83-0.12-1.32zm14.4-2.32c0.39 0.01 0.72-0.48 0.76-1.09 0.03-0.61-0.25-1.11-0.64-1.12-0.38-0.01-0.72 0.48-0.76 1.09-0.03 0.61 0.25 1.11 0.64 1.12zm-7.34-0.25c0.36-0.12 0.51-0.69 0.33-1.28-0.17-0.58-0.62-0.96-0.98-0.83-0.37 0.12-0.52 0.7-0.34 1.28 0.18 0.59 0.62 0.96 0.99 0.83z"/>
	</g>
</svg>