<svg version="1.2" xmlns="http://www.w3.org/2000/svg" viewBox="0 0 1698 1698" width="1698" height="1698">
	<style>
		.s0 { fill: #448674 } 
		.s1 { fill: #ffffff } 
	</style>
	<path id="Forma 1" fill-rule="evenodd" class="s0" d="m849.5 1379c-293.37 0-530.5-237.13-530.5-530.5 0-293.37 237.13-530.5 530.5-530.5 293.37 0 530.5 237.13 530.5 530.5 0 293.37-237.13 530.5-530.5 530.5z"/>
	<g id="&lt;Group&gt;">
		<g id="&lt;Group&gt;">
			<path id="&lt;Compound Path&gt;" fill-rule="evenodd" class="s1" d="m608.21 462.31l68.79 50.38q4.18 3.03 7.06 3.07 2.87 0.04 4.64-0.95l1.36 2.13q-2.26 1.15-5.39 3.07-3.12 1.92-6.21 3.9-4.15 2.65-7.74 5.02-3.58 2.37-5.68 4.01l-1.36-2.13q5.29-3.69 5.73-6.29 0.43-2.6-5.17-6.67l-17.7-13.29 4.94-3.16-1.36-2.13-5.73 3.67-32.21-24.19 8.07 39.61-0.8 0.51 0.3 2.81 1.04-0.67 2.87 14.07q1.02 5.35 2.57 8.48 1.55 3.13 3.54 4.26 2 1.13 4.66 0.47 2.66-0.64 6.03-2.65l1.36 2.13q-3.12 1.7-6.4 3.72-3.28 2.02-6.05 3.79-2.67 1.7-4.5 2.94-1.82 1.25-3.29 2.48l-1.36-2.13q1.79-1.89 2.77-5.29 0.98-3.4-0.27-9.35l-16.22-80.53q0.43-0.27 0.86-0.54 0.42-0.28 0.85-0.55zm12.58 58.7l-0.54-2.65 24.14-15.42 2.15 1.62z"/>
			<path id="&lt;Compound Path&gt;" class="s1" d="m659.16 433.44q2.53-0.81 6.59-2.21 4.07-1.4 7.97-2.87 5.56-2.1 10.6-4.13 5.04-2.04 7.17-2.84 9.57-3.61 16.93-3.28 7.35 0.34 12.24 3.82 4.9 3.5 7.09 9.29 1.33 3.55 1.43 8.1 0.1 4.56-2.05 9.42-2.15 4.86-7.32 9.44-5.16 4.58-14.38 8.06l-11.35 4.28-0.89-2.36 10.16-3.84q8.4-3.16 11.83-7.5 3.43-4.33 3.36-9.37-0.08-5.03-2.13-10.47-3.52-9.34-9.9-12.82-6.37-3.47-17.13 0.59-5.44 2.05-6.34 4.69-0.9 2.63 1.42 8.78l22.12 58.65q1.61 4.26 3.12 6.12 1.51 1.86 3.85 1.79 2.33-0.07 6.44-1.35l0.9 2.37q-2.81 0.79-6.92 2.27-4.1 1.48-8.24 3.04-4.61 1.74-8.61 3.31-3.99 1.58-6.39 2.75l-0.89-2.37q3.93-1.75 5.73-3.24 1.8-1.49 1.71-3.89-0.09-2.39-1.7-6.65l-22.12-58.65q-1.64-4.38-3.13-6.18-1.5-1.8-3.85-1.79-2.37 0.01-6.43 1.41zm34.63 34.89q6.48-2.17 10.26-3.26 3.77-1.08 6.17-1.72 2.39-0.63 4.66-1.08 8.41-1.68 13.21 0.49 4.81 2.17 9.23 8.88l7.5 10.94q3.15 4.76 5.26 6.6 2.11 1.84 4.67 0.74 1.96-0.88 2.88-2.57 0.91-1.7 1.69-4.29l2.26 0.63q-1.1 4.6-3.02 7.56-1.93 2.95-6.77 4.78-4.38 1.65-8.67 0.3-4.29-1.35-8.8-8.3l-7.06-10.84q-2.99-4.69-5.75-7.9-2.77-3.21-5.99-4.43-3.23-1.21-7.96 0.57l-12.77 4.82z"/>
			<path id="&lt;Compound Path&gt;" fill-rule="evenodd" class="s1" d="m795.05 393.52q11.91-1.54 21.57 2.7 9.65 4.24 15.9 13.69 6.25 9.45 8.11 23.87 1.81 14.04-1.92 25.22-3.72 11.18-11.98 18.24-8.27 7.05-19.93 8.55-11.91 1.53-21.56-2.7-9.66-4.24-15.92-13.76-6.26-9.51-8.09-23.8-1.81-14.04 1.97-25.23 3.79-11.19 11.99-18.24 8.2-7.04 19.86-8.54zm-0.21 2.32q-8.15 1.04-13.44 7.46-5.29 6.42-7.34 16.74-2.04 10.34-0.36 23.37 1.71 13.29 6.67 22.65 4.96 9.37 11.98 13.88 7.02 4.51 14.66 3.53 8.15-1.05 13.44-7.47 5.29-6.41 7.33-16.8 2.04-10.4 0.38-23.31-1.73-13.41-6.68-22.71-4.96-9.3-11.91-13.82-6.96-4.52-14.73-3.52z"/>
			<path id="&lt;Compound Path&gt;" class="s1" d="m965.49 402.36l-0.34 2.5q-4.28-0.45-6.58 0.07-2.3 0.52-3.35 2.6-1.05 2.09-1.67 6.73l-8.42 62.12q-0.62 4.5-0.17 6.86 0.45 2.36 2.54 3.4 2.09 1.05 6.31 1.88l-0.34 2.51q-2.85-0.64-7.16-1.29-4.31-0.65-8.69-1.24-4.89-0.67-9.15-1.18-4.27-0.51-6.93-0.62l0.34-2.51q4.29 0.33 6.58-0.13 2.29-0.45 3.35-2.6 1.06-2.15 1.67-6.66l9.34-68.89 0.44 0.45-41.85 78.25-2-0.27-20.55-85.56-8.96 66.12q-0.61 4.52-0.14 7.19 0.46 2.68 2.76 4.07 2.3 1.4 7.15 2.31l-0.34 2.51q-2.22-0.56-5.84-1.11-3.63-0.56-6.88-1-3.13-0.42-6.34-0.79-3.2-0.37-5.36-0.41l0.34-2.51q4.29 0.33 6.63-0.44 2.33-0.76 3.43-3.23 1.1-2.46 1.71-6.97l8.25-60.87q0.63-4.63 0.17-6.93-0.45-2.29-2.53-3.4-2.08-1.11-6.32-1.82l0.33-2.5q2.12 0.41 5.29 0.97 3.18 0.56 6.31 0.98 2.76 0.38 5.72 0.65 2.96 0.27 4.98 0.42l18.28 78.75-2.27 0.71 38.42-71.7q1.5 0.2 2.94 0.4 1.44 0.19 2.94 0.4 4.38 0.59 8.72 1.05 4.34 0.46 7.24 0.73z"/>
			<path id="&lt;Compound Path&gt;" fill-rule="evenodd" class="s1" d="m1027.64 424.81l-1.32 85.26q-0.05 5.16 1.58 7.53 1.63 2.37 3.46 3.24l-0.95 2.34q-2.25-1.18-5.62-2.62-3.38-1.43-6.77-2.81-4.57-1.86-8.57-3.41-4.01-1.56-6.56-2.33l0.95-2.34q6.06 2.2 8.44 1.04 2.38-1.15 2.46-8.07l0.61-22.12 5.43 2.2 0.95-2.34-6.31-2.56 1.11-40.27-27.65 29.5-0.88-0.36-2.12 1.87 1.15 0.46 28.32 11.5 0.07-2.7-26.54-10.77-1.85 1.97-9.82 10.48q-3.77 3.92-5.43 7-1.66 3.08-1.43 5.35 0.24 2.28 2.31 4.08 2.06 1.79 5.65 3.38l-0.95 2.34q-3.19-1.56-6.73-3.07-3.55-1.51-6.6-2.75-2.93-1.18-5-1.96-2.07-0.77-3.92-1.25l0.95-2.34q2.58 0.37 5.92-0.8 3.34-1.17 7.47-5.63l56.32-59.8q0.47 0.19 0.94 0.38 0.46 0.19 0.93 0.38z"/>
			<path id="&lt;Compound Path&gt;" class="s1" d="m1105.18 464.63q5.28 3.48 7.23 6.5 1.94 3.02 3.08 5.89 0.78 1.57 1.33 2.46 0.55 0.89 1.29 1.38 1.05 0.69 2.29-0.16 1.24-0.84 3.09-2.96l2.43 1.6q-1.29 1.73-3.08 4.1-1.79 2.38-4.52 6.41-2.73 4.03-7.11 10.68l-2.42-1.6q3.01-5.28 4.17-11.17 1.16-5.9-0.54-11.25-1.69-5.35-7.61-9.24-5.59-3.69-11.46-2.71-5.86 0.99-9.48 6.47-3.12 4.75-2.81 9.57 0.3 4.82 2.67 10.08 2.36 5.26 5.16 11.35 3.27 6.99 5.36 13.13 2.08 6.14 1.92 11.78-0.16 5.65-3.91 11.35-4.45 6.75-10.43 9.17-5.98 2.42-12.5 1.3-6.53-1.12-12.65-5.15-5.6-3.68-8.04-7.1-2.44-3.42-3.85-6.32-1.35-3.01-2.62-3.84-1.06-0.7-2.3 0.15-1.24 0.85-3.08 2.96l-2.43-1.59q1.67-2.08 3.7-5.06 2.04-2.97 5.29-7.79 3.25-4.82 8.11-12.21l2.43 1.59q-3.75 6.62-5.41 13.39-1.66 6.78 0.22 12.78 1.87 6 8.63 10.45 3.48 2.29 7.53 2.91 4.06 0.63 8.11-1.17 4.06-1.79 7.33-6.75 2.84-4.33 2.9-8.9 0.06-4.58-1.79-9.81-1.85-5.23-4.87-11.45-2.95-6.33-5.19-12.34-2.24-6.02-2.08-11.89 0.15-5.87 4.05-11.79 4.1-6.23 9.57-8.45 5.47-2.22 11.3-1.19 5.82 1.04 10.99 4.44z"/>
		</g>
		<g id="&lt;Group&gt;">
			<path id="&lt;Compound Path&gt;" fill-rule="evenodd" class="s1" d="m566.39 1071.7q15.05 18.81 12.96 35.49-2.09 16.67-19.64 30.72-11.46 9.17-23.6 11.55-12.15 2.39-23.69-2.34-11.54-4.73-21.22-16.82-1.26-1.57-3.26-4.29-1.99-2.71-4.17-5.54-2.18-2.83-4.03-5.14-2.94-3.68-5.85-7.21-2.91-3.53-4.89-5.57l2.1-1.68q3.07 3.4 5.17 4.74 2.11 1.33 4.5 0.45 2.4-0.88 6.19-3.91l52.14-41.72q3.88-3.11 5.22-5.22 1.33-2.1 0.54-4.48-0.79-2.39-3.54-6.05l2.1-1.68q1.67 2.29 4.37 5.99 2.7 3.7 5.58 7.08 3.05 3.6 6.86 8.14 3.8 4.54 6.16 7.49zm-4-1.12q-3.87-4.84-6.83-4.87-2.97-0.05-8.43 4.33l-52.56 42.05q-5.47 4.38-6.04 7.33-0.57 2.96 3.3 7.79 9.17 11.46 18.37 14.45 9.2 2.98 19.21-0.89 10.01-3.87 21.47-13.04 11.77-9.42 17.27-18.39 5.49-8.96 4.24-18.4-1.25-9.43-10-20.36z"/>
			<path id="&lt;Compound Path&gt;" fill-rule="evenodd" class="s1" d="m653.98 1154.72q-3.35 3.36-6.26 6.72-2.92 3.36-4.34 5.16-1.5 1.9-2.77 3.72-1.28 1.83-2.09 3.07l-2.43-1.92q4.3-6.73 6.02-11.29 1.72-4.56 0.13-8.31-1.59-3.74-7.18-8.17l-8.77-6.93q-3.59-2.84-5.89-3.72-2.31-0.88-4.41 0.46-2.09 1.35-5.18 5.26l-19.71 24.92-3.17-2.51-1.67 2.11 3.17 2.51-20.05 25.34q-3.01 3.8-3.88 6.2-0.87 2.41 0.52 4.45 1.39 2.04 4.98 4.88l7.71 6.1q6.65 5.26 11.5 6.18 4.85 0.92 9.6-1.94 4.75-2.85 11-9.23l2.43 1.92q-2.57 2.6-6.33 7.35-1.59 2.01-4.4 5.88-2.8 3.87-5.55 8.22-5.22-4.47-11.94-9.87-6.72-5.4-11.99-9.58-2.33-1.83-5.97-4.71-3.64-2.89-7.91-6.17-4.26-3.29-8.63-6.66-4.38-3.37-8.36-6.36l1.66-2.11q3.76 2.63 6.11 3.46 2.35 0.82 4.49-0.58 2.13-1.4 5.14-5.2l41.43-52.37q3.09-3.91 3.92-6.26 0.82-2.34-0.48-4.49-1.31-2.15-4.81-5.1l1.67-2.11q3.82 3.2 8.11 6.67 4.29 3.48 8.47 6.88 4.18 3.39 7.82 6.27 3.65 2.88 5.97 4.72 4.86 3.84 11.08 8.68 6.21 4.83 11.24 8.46zm-64.55 11.08l1.67-2.11 6.96 5.51-1.66 2.11zm8.63 3.4q3.49 2.76 6.47 2.79 2.97 0.04 5.57-1.51 2.6-1.55 4.79-3.67 2.2-2.13 4.02-3.78l2.43 1.92q-5.19 5.69-7.64 8.9-2.45 3.21-4.54 5.85-2.09 2.64-4.49 5.89-2.4 3.25-6.74 9.6l-2.42-1.92q2.25-3.71 4.21-7.39 1.97-3.68 1.65-7.29-0.33-3.6-4.97-7.28l9.18 7.27 1.67-2.11z"/>
			<path id="&lt;Compound Path&gt;" class="s1" d="m691.34 1176.47q2.59 1.15 6.81 2.93 4.21 1.79 8.36 3.39 5.89 2.29 11.34 4.26 5.45 1.97 7.7 2.85 15.19 5.89 20.04 15.72 4.86 9.82 0.62 20.74-1.76 4.52-5.19 8.89-3.43 4.38-8.76 7.14-5.34 2.77-12.76 2.92-7.42 0.15-17.21-3.64l-12.05-4.68 0.97-2.51 10.79 4.19q8.92 3.46 14.94 1.89 6.02-1.56 9.86-6.42 3.84-4.87 6.32-11.27 4.63-11.92 2.21-19.65-2.42-7.72-13.84-12.16-5.77-2.24-8.36-0.79-2.58 1.46-5.11 7.98l-24.16 62.25q-1.76 4.52-1.69 7.15 0.06 2.62 2.53 4.45 2.47 1.82 7.64 4.12l-0.97 2.51q-3.17-1.52-8.16-3.53-5-2.01-10.15-4.01-4.89-1.9-9.18-3.49-4.29-1.59-7.03-2.37l0.98-2.51q4.36 1.41 6.85 1.51 2.49 0.1 4.12-1.87 1.63-1.97 3.38-6.49l24.16-62.25q1.8-4.64 1.9-7.13 0.1-2.49-1.78-4.16-1.88-1.67-6.09-3.45z"/>
			<path id="&lt;Compound Path&gt;" fill-rule="evenodd" class="s1" d="m793.03 1207.34l17.98 89.04q1.11 5.39 3.35 7.48 2.23 2.09 4.34 2.59l-0.46 2.65q-2.61-0.72-6.45-1.45-3.83-0.73-7.68-1.39-5.18-0.9-9.7-1.61-4.52-0.71-7.35-0.93l0.46-2.65q6.81 0.9 9.02-0.83 2.21-1.74 0.73-8.96l-4.39-23.17 6.15 1.07 0.46-2.66-7.15-1.23-7.98-42.16-22.08 36.97-1-0.17-1.78 2.42 1.3 0.23-7.84 13.13q-3.04 4.94-4.07 8.52-1.03 3.58-0.26 5.9 0.75 2.31 3.32 3.71 2.55 1.4 6.65 2.24l-0.46 2.65q-3.67-0.9-7.71-1.67-4.03-0.76-7.48-1.36-3.32-0.57-5.65-0.9-2.34-0.34-4.37-0.42l0.46-2.65q2.76-0.2 5.98-2.18 3.2-1.97 6.49-7.55l45.05-75.02q0.53 0.09 1.06 0.18 0.53 0.09 1.06 0.18zm-32.23 55.24l1.48-2.48 30.06 5.19 0.54 2.82z"/>
			<path id="&lt;Compound Path&gt;" class="s1" d="m831.97 1214.41q2.83 0.02 7.41-0.05 4.58-0.05 9.02-0.24 6.32-0.27 12.1-0.65 5.78-0.38 8.2-0.48 10.89-0.46 18.22 2.33 7.33 2.79 11.12 7.95 3.79 5.16 4.07 11.75 0.17 4.03-1.25 8.68-1.42 4.64-5.22 8.84-3.8 4.2-10.54 7.12-6.75 2.91-17.25 3.36l-12.91 0.54-0.11-2.69 11.57-0.49q9.55-0.4 14.46-3.64 4.92-3.24 6.52-8.36 1.6-5.12 1.34-11.31-0.45-10.63-5.74-16.26-5.3-5.64-17.54-5.12-6.18 0.26-7.97 2.63-1.78 2.36-1.49 9.36l2.83 66.71q0.2 4.85 1.11 7.23 0.91 2.39 3.3 3.1 2.39 0.7 6.97 0.78l0.12 2.69q-3.11-0.14-7.75-0.01-4.64 0.13-9.35 0.33-5.25 0.22-9.82 0.48-4.57 0.27-7.38 0.65l-0.12-2.69q4.57-0.46 6.88-1.37 2.33-0.9 3.03-3.36 0.7-2.45 0.5-7.3l-2.83-66.71q-0.21-4.98-1.12-7.3-0.9-2.32-3.29-3.09-2.4-0.78-6.97-0.72zm23.41 46.85q7.27-0.04 11.46 0.12 4.18 0.16 6.81 0.31 2.64 0.16 5.08 0.46 9.07 1.1 13.21 4.9 4.13 3.8 6.37 12.06l3.94 13.58q1.6 5.86 3.12 8.42 1.53 2.57 4.48 2.31 2.28-0.23 3.77-1.65 1.49-1.4 3.14-3.77l2.08 1.4q-2.65 4.29-5.58 6.63-2.93 2.35-8.45 2.59-4.97 0.2-8.86-2.59-3.89-2.8-6.14-11.33l-3.53-13.33q-1.46-5.73-3.18-9.9-1.73-4.17-4.59-6.48-2.86-2.3-8.24-2.08l-14.53 0.62z"/>
			<path id="&lt;Compound Path&gt;" fill-rule="evenodd" class="s1" d="m950.4 1199.59l53.86 73.14q3.29 4.41 6.19 5.37 2.91 0.95 5.03 0.52l0.7 2.6q-2.67 0.44-6.45 1.4-3.79 0.96-7.56 1.97-5.07 1.38-9.46 2.64-4.41 1.26-7.06 2.26l-0.71-2.6q6.56-2.05 7.83-4.56 1.27-2.51-3.12-8.43l-13.75-19.15 6.03-1.63-0.71-2.6-7 1.9-25.03-34.86-4.42 42.84-0.29 2.87 31.42-8.52-1.68-2.33-29.45 7.98-0.97 0.26-0.6 2.95 1.28-0.34-1.57 15.21q-0.67 5.76-0.09 9.44 0.57 3.68 2.24 5.46 1.67 1.78 4.58 1.97 2.91 0.18 6.97-0.78l0.71 2.6q-3.71 0.73-7.69 1.74-3.98 1.01-7.36 1.92-3.25 0.88-5.51 1.56-2.25 0.69-4.13 1.47l-0.71-2.6q2.43-1.35 4.51-4.49 2.07-3.15 2.7-9.6l9.19-87.02q0.52-0.14 1.04-0.28 0.52-0.14 1.04-0.28z"/>
			<path id="&lt;Compound Path&gt;" class="s1" d="m1027.82 1166.94q7.83-4.2 14.11-4.59 6.28-0.39 11.85 0.6 3.33 0.51 3.85-1.53 0.51-2.03-1.75-7.38l2.73-1.47q2.11 4.52 5.37 10.87 3.25 6.36 8.78 16.68l-2.73 1.46q-3.56-4.65-5.9-7.3-2.33-2.64-4.48-4.24-2.16-1.59-4.96-2.84-6.29-2.89-13.04-2.1-6.76 0.8-12.93 4.1-5.81 3.12-8.94 8.53-3.13 5.43-3.59 12.69-0.46 7.28 1.84 15.98 2.29 8.7 7.45 18.31 5.33 9.96 11.46 16.54 6.11 6.57 12.53 9.85 6.42 3.28 12.77 3.31 6.36 0.04 12.06-3.02 5.34-2.86 10.01-8.11 4.67-5.25 5.45-11.78 0.76-4.84-0.39-9.41-1.16-4.58-4.2-12.26l2.73-1.47q5.78 10.8 9.43 17.32 3.65 6.53 6.3 10.91l-2.73 1.46q-3.21-4.85-5.03-5.55-1.83-0.7-3.55 2.36-2.74 5.44-6.42 10.39-3.69 4.96-11.4 9.09-11.28 6.04-22.49 5.48-11.22-0.55-21.06-7.65-9.84-7.1-17.09-20.63-7.12-13.29-7.6-25.87-0.47-12.57 5.02-22.7 5.5-10.12 16.54-16.03z"/>
			<path id="&lt;Compound Path&gt;" fill-rule="evenodd" class="s1" d="m1094.05 1121.82l80.54 41.99q4.9 2.52 7.93 2.09 3.03-0.42 4.74-1.74l1.78 2.03q-2.2 1.57-5.19 4.09-2.97 2.53-5.91 5.1-3.95 3.46-7.34 6.54-3.4 3.06-5.35 5.13l-1.77-2.02q4.98-4.73 5.02-7.55 0.04-2.81-6.51-6.19l-20.77-11.15 4.69-4.12-1.77-2.02-5.46 4.78-37.81-20.29 14.88 40.41-0.76 0.67 0.76 2.91 1-0.87 5.28 14.35q1.93 5.47 4.07 8.52 2.14 3.05 4.42 3.91 2.28 0.87 4.98-0.24 2.69-1.11 5.92-3.77l1.77 2.03q-3.01 2.28-6.14 4.94-3.13 2.66-5.76 4.96-2.53 2.23-4.26 3.83-1.72 1.6-3.06 3.14l-1.78-2.03q1.58-2.28 2.06-6.01 0.48-3.74-1.79-9.81l-30.03-82.19q0.41-0.35 0.81-0.71 0.41-0.35 0.81-0.71zm22.7 59.79l-1-2.71 22.93-20.12 2.54 1.36z"/>
			<path id="&lt;Compound Path&gt;" class="s1" d="m1141.76 1069.48q4.06-5.36 7.41-7.22 3.35-1.85 6.48-2.86 1.72-0.72 2.71-1.24 0.98-0.52 1.55-1.27 0.82-1.08 0-2.45-0.81-1.38-2.93-3.49l1.87-2.47q1.74 1.49 4.14 3.56 2.4 2.07 6.49 5.25 4.1 3.19 10.86 8.31l-1.87 2.47q-5.4-3.58-11.58-5.23-6.19-1.64-12-0.21-5.81 1.42-10.36 7.43-4.31 5.69-3.68 11.99 0.63 6.31 6.22 10.53 4.82 3.66 9.97 3.67 5.14 0.02 10.9-2.13 5.76-2.14 12.42-4.69 7.66-2.98 14.33-4.77 6.68-1.79 12.67-1.22 5.98 0.57 11.78 4.95 6.87 5.21 9.02 11.73 2.15 6.53 0.5 13.39-1.64 6.86-6.36 13.08-4.31 5.69-8.11 8.04-3.81 2.35-6.99 3.66-3.29 1.22-4.27 2.51-0.81 1.07 0 2.45 0.82 1.38 2.93 3.49l-1.86 2.46q-2.1-1.92-5.11-4.29-3.02-2.37-7.92-6.16-4.89-3.79-12.41-9.48l1.87-2.47q6.77 4.45 13.85 6.69 7.08 2.24 13.59 0.67 6.51-1.57 11.72-8.44 2.68-3.55 3.63-7.81 0.94-4.26-0.67-8.7-1.63-4.43-6.67-8.26-4.4-3.33-9.26-3.71-4.86-0.39-10.55 1.21-5.69 1.61-12.51 4.37-6.94 2.69-13.49 4.65-6.55 1.97-12.78 1.38-6.23-0.57-12.24-5.13-6.33-4.79-8.31-10.77-1.98-5.97-0.47-12.09 1.51-6.11 5.49-11.38z"/>
		</g>
	</g>
	<g id="&lt;Group&gt;">
		<path id="&lt;Path&gt;" class="s1" d="m973.65 1070.34c-11.96 2.26-23.02 9.56-35.33 10.45-1.78 0.12-3.48 0.11-5.15 0.01-3.62-1.63-7.95-3.85-9.77-4.53-12.55-4.73-22.56-6.12-35.83-3.42-9.19 1.87-10.59 2.26-21.63-4.17-9.69-2.3-21.13-4.09-30.66 0.08-0.11 0.36-0.22 0.66-0.33 0.82-2.76 4.12-8.41 2.45-14.93 1.87-20.74-1.85-31.25 14.32-54.46 8.08-21.32-5.74-25.04-9.29-48.15-2.64-9.4 2.71-28.24 11.13-37.03 11.13h-9.51c-0.25 0-5.04-2.4-3.28-0.3 22.74 9.53 46.04-5.36 68.92-2.63 9.65 6.5 21.84 8.99 33.45 8.08 15.87-1.24 30.22-10.57 46.47-5.89 15.93 4.59 23.44 12.08 42.12 9.46 14.5-2.03 27.17-12.24 41.68-11.21 10.01 0.71 19.81 6.98 30.31 7.74 23.97 1.74 37.27-14.49 58.89-16.07 8.52-0.62 20.39 0.82 28.73 2.77 2.87 0.66 5.55 1.92 8.42 2.57-14.35-9.93-35.61-15.49-52.93-12.2z"/>
		<path id="&lt;Compound Path&gt;" fill-rule="evenodd" class="s1" d="m892.33 729.65c-0.72 10.66-7.66 18.69-15.5 17.93-0.51-0.05-0.98-0.23-1.47-0.35-2.71 0.5-5.2 1.21-8.18 4.19-4.62 4.6-7.19 19.19-7.19 19.19-0.63 4.75 0.81 128.11 1.83 136.12 0 0 0.25 4.86 0.67 12.91l12.03 0.08c-0.33 5.85-0.65 11.92-0.38 17.91l-10.68 0.38c2.58 49.23 7.32 139.26 7.45 139.33q0.17 0.1 0.34 0.2c-14.63-3.47-31.89-6.18-46.26 0.12 3.62-11.88 7.58-92.92 9.64-140.57l-15.39-0.4c0-5.69 0-11.27 0-16.93l16.12-0.1c0.43-10.68 0.68-17.31 0.68-17.31 1.99-20.8 2.77-115.81 1.74-126.54q-0.08 0.01-0.17 0.02c-0.87-9.46-2.78-17.75-6.66-22.47-4.07-4.95-8.7-5.79-13.15-7.09q0.06-0.03 0.12-0.06c-0.5 0.02-1 0.11-1.52 0.06-7.84-0.76-13.62-10.02-12.89-20.68 0.72-10.66 7.66-18.69 15.5-17.93 7.84 0.76 13.62 10.02 12.9 20.68-0.14 1.95-0.54 3.77-1.05 5.5 0.54 2.75 1.89 5.36 5.5 7.85l0.95-0.48-0.59-68.82h-5.53c0-4.98 0-9.93 0-15.15h5.4l-0.33-51.85c-4.13 0.13-8.73-1.05-12.98-3.71-9.02-5.67-12.94-15.65-8.77-22.3 3.43-5.46 11.24-6.91 18.92-4.15 1.2-8.58 6.62-15.13 13.36-15.34 7.34-0.23 13.54 7.16 14.6 16.82 8.64-4.6 18.32-3.59 22.24 2.67 4.18 6.65 0.25 16.63-8.77 22.3-5.27 3.31-11.09 4.34-15.87 3.36l0.32 52.2h3.76c0 4.78 0 10.17 0 15.15h-3.63l0.6 69.38c0.84-0.12 1.85-0.69 2.29-1.03 1.51-1.18 2.33-2.62 2.86-4.19-0.98-2.92-1.49-6.19-1.26-9.65 0.73-10.66 7.67-18.69 15.51-17.93 7.84 0.75 13.62 10.01 12.89 20.68zm-74.56-9.47c0.26-2.76-0.94-5.18-2.67-5.39-1.74-0.22-3.36 1.84-3.62 4.6-0.26 2.77 0.94 5.18 2.68 5.4 1.73 0.22 3.35-1.85 3.61-4.61zm53.11-128.79c1.1 1.36 3.79 1.08 5.99-0.6 2.2-1.69 3.09-4.16 1.98-5.52-1.11-1.35-3.79-1.08-5.99 0.61-2.21 1.68-3.09 4.15-1.98 5.51zm-45.59-5.51c-2.2-1.69-4.89-1.96-6-0.61-1.1 1.36-0.22 3.83 1.99 5.52 2.2 1.68 4.88 1.96 5.99 0.6 1.11-1.36 0.22-3.83-1.98-5.51zm52.91 135.61c0.26-2.76-0.94-5.18-2.67-5.4-1.74-0.21-3.36 1.85-3.62 4.61-0.26 2.76 0.94 5.18 2.67 5.4 1.74 0.22 3.36-1.85 3.62-4.61zm-24.98-150c-0.35-2.75-2.03-4.76-3.76-4.49-1.73 0.27-2.85 2.72-2.51 5.47 0.35 2.76 2.03 4.77 3.76 4.5 1.73-0.27 2.85-2.73 2.51-5.48z"/>
		<path id="&lt;Compound Path&gt;" fill-rule="evenodd" class="s1" d="m919.51 661.68c-6.91 4.34-14.78 4.85-19.98 1.87-5.9 5.47-13.79 8.84-22.46 8.84h-14c0-4.98 0-10.37 0-15.15h14c5.27 0 9.99-2.29 13.28-5.92-4.75-3.22-7.92-9.94-7.68-17.66 0.33-10.65 6.97-19.08 14.82-18.84 7.85 0.25 13.95 9.07 13.62 19.72q-0.01 0.04-0.01 0.09c7.09-1.96 14.01-0.29 17.18 4.75 4.18 6.66 0.25 16.64-8.77 22.3zm-22.19-34.28c0.35-2.75-0.78-5.2-2.51-5.47-1.73-0.27-3.41 1.74-3.75 4.49-0.35 2.76 0.77 5.21 2.5 5.48 1.73 0.27 3.41-1.74 3.76-4.5zm26.18 17.88c-1.11-1.36-3.79-1.09-6 0.6-2.2 1.69-3.08 4.16-1.98 5.52 1.11 1.35 3.79 1.08 6-0.61 2.2-1.69 3.08-4.15 1.98-5.51z"/>
		<path id="&lt;Compound Path&gt;" fill-rule="evenodd" class="s1" d="m767.5 639.38c3.17-5.04 10.09-6.71 17.18-4.75q0-0.05-0.01-0.09c-0.33-10.65 5.77-19.47 13.62-19.72 7.85-0.24 14.49 8.19 14.82 18.84 0.23 7.72-2.93 14.44-7.68 17.66 3.29 3.63 8.01 5.92 13.27 5.92h14.01c0 4.78 0 10.17 0 15.15h-14.01c-8.67 0-16.55-3.37-22.46-8.84-5.19 2.98-13.06 2.47-19.97-1.87-9.02-5.66-12.95-15.64-8.77-22.3zm34.71-7.48c1.73-0.27 2.86-2.72 2.51-5.48-0.34-2.75-2.03-4.76-3.76-4.49-1.73 0.27-2.85 2.72-2.5 5.47 0.34 2.76 2.03 4.77 3.75 4.5zm-27.95 18.89c2.2 1.69 4.89 1.96 5.99 0.61 1.11-1.36 0.22-3.83-1.98-5.52-2.2-1.69-4.88-1.96-5.99-0.6-1.11 1.36-0.22 3.82 1.98 5.51z"/>
		<path id="&lt;Compound Path&gt;" fill-rule="evenodd" class="s1" d="m836 919.76c0 5.66-14 11.24-14 16.93l-92.79-2.04c-22.13 0-40.92-14.34-47.7-34.2-7.64-8.13-14.16-17.01-18.83-28.11-1.29-3.06-3.07-10.99-4.58-13.13-0.4-0.57-4.96-2.68-6.43-3.93-6.86-5.87-9.5-17.2-6.49-25.64 1.91-5.33 5.51-5.37 0.74-11.35-3.2-4.02-8.15-4.67-12.1-7.68 0.43-2.86 3.76-0.29 5.74-0.95-1.1-3.76-15.84-10.09-15.93-12.43-0.09-2.5 5.45 1.71 6.36 0.64-3.39-4.77-11.51-9.04-14.07-13.99-0.31-0.61-1.18-1.82-0.27-2.29l5.41 2.25c-1.3-3.57-9.77-11.3-9.54-14.68 0.2-3.01 4.36 2.32 5.08 1.59-1.09-6.16-6.84-11.44-5.42-17.85l4.14 4.46c0.94-7.75-3.92-15.44-0.63-22.96l3.18 6.38c0.96-2.69 1.93-20.39 4.15-20.4l2.23 3.82c2.46-4.96 1.93-12.07 4.63-16.74 2.09-3.62 2.71-0.11 2.4 2.71 1.36 1.91 5.69-15.92 6.38-16.59 1.8-1.73 1.24 4.61 1.27 5.1 1.42 1.95 4.76-13.48 5.07-14.37 0.53-1.48 1.35-4.26 3.21-4.12 1.02 1.15-2.32 6.86 0.63 6.37 1.27-1.4 7.49-21.49 8.94-20.4l1.27 3.82c-0.09-1.25 5.33-15.88 6.38-14.67l1.27 2.55c0.21-2.03 4.52-11.32 6.07-11.46 1.72-0.16-0.91 4.18 1.58 3.17 0.78-2.21 9.07-13.36 10.79-12.01 0.22 0.18-0.21 1.22 0.38 1.17 5.7-4.65 18.13-8.93 18.82 1.91-1.05-0.11-0.67-1.56-1.54-2.6-3.35-4.08-8.02-0.9-10.57 2.29l1.27 1.9-8.29 7.67c0.27 0.99 4.72-1.5 3.82 0.62l-9.56 7.67c0.72 1.16 5.16-2.29 5.09-0.01-0.04 1.16-10.76 7.82-10.82 8.93-0.09 1.94 4.4-1.41 5.09 0l-8.93 8.3c1.38 1.32 4.36-3.52 4.46-0.65l-9.56 10.86c-0.33 2.85 4.38-2.67 4.45-0.01 0.05 2.17-7.21 7.79-8.27 10.21-1.17 2.68 3.41-1.41 3.82-0.96 1.23 2.93-8.95 11.38-7.65 12.75 0.49 0.31 5.2-3.75 4.44-0.97-1.08 3.97-7.48 8.46-8.91 12.78 0.88 1.16 4.96-4.39 5.09-1.29 0.1 2.52-10.32 11.37-8.28 13.72 0.74 0.34 4.88-3.85 4.47-0.96-0.72 5.13-5.94 11.49-7.22 16.38-0.42 1.57-0.93 5.01-0.94 6.59-0.01 0.55 0.23 3.52 1.13 3.5 0.34-2.5 1.62-5.66 3.83-7.01-0.3 8.74-4.22 16.82-1.26 25.51 1.57 0.31 2.4-6.86 3.82-5.1 0.26 7.11-2.35 13.17-0.63 20.41 1.55-0.31 1.86-7.92 3.25-4.22 1.76 4.69-1.16 8.07-1.3 12.29-0.07 2.12 1.04 4.33 0.6 6.6 1.87-0.66 1.47-4.02 3.82-3.83 0.18 6.61-3.3 11.75-0.85 18.39 1.05 2.85 2.73 2.15 4.64 3.66 7.57 5.99 9.7 17.32 6.53 26.23-0.63 1.77-2.96 4.84-3.12 6.33-0.16 1.56 1.49 7.29 2.05 9.17 3.47 11.7 10.63 22.31 19.44 30.62-1.95-6.28-4.43-12.92-5.01-19.54-0.51-5.76 0.72-12.99-0.12-18.37-0.41-2.59-3.3-6.33-4.11-9.29-2.08-7.65-0.26-16.94 5.76-22.31 1.32-1.17 3.79-1.77 4.13-3.52 1.22-6.19-4.57-9.16-4.46-14.99 1.1-1.23 4.94 6.08 5.08 2.88 0.01-0.35-2.03-5.65-2.41-6.51-0.99-2.22-3.65-5.28-3.96-7.53-0.17-1.27 0.65-1.25 1.53-0.89 1.69 0.7 0.99 2.85 2.94 2.48 0.82-3.72-6.08-9.59-6.3-11.89-0.26-2.7 2.48-0.15 3.74 0.41 1.38-1.8-6.57-8.84-7.02-11.15-0.47-2.48 3.59 0.76 4.17 0.94 0.47 0.1 0.42-0.65 0.3-0.94-0.73-1.79-9.36-10.1-7.64-11.81 0.91-0.9 5.23 3.67 4.45 0.97-1.1-3.81-6.95-8.03-7.01-12.76 2.14-1.04 3.05 2.11 4.46 2.86-0.2-6.27-6.1-11.02-5.1-17.54 2.49 0.11 1.9 3.92 3.83 4.78 0.41-4.09-3.21-7.02-3.18-10.84l3.18 3.83c-0.01-5.16-2.17-10.23-1.26-15.31 2.05 0.53 0.83 4.32 3.18 3.83v-13.08c0-0.35 1.24-2.85 1.59-2.85l1.59 3.81c0.89-4.17 2.07-9.57 4.35-13.2 0.63-1 2.14-3.71 3.29-1.79-2.91 3.99-1.65 9.1-1.89 13.71l3.18-3.18c0.44 4.8-2.49 9.16-1.9 14.03 1.17-0.04 3.03-6.8 3.81-3.48 0.66 2.8-3.2 10.07-1.9 13.68l3.82-4.46c1 5.03-2 9.97 0.01 15.3 1.6-0.13 1.18-5.9 3.18-4.46 1.5 1.09-1.79 15.07 3.19 17.22l0.65-7.01c3 2.31 2.05 6.96 2.82 10.24 0.88 3.7 2.32 7.22 3.56 10.8 1.33-0.35 0.93-4.72 1.27-5.1 0.86-0.97 1.15 0.35 1.46 0.79 2.58 3.6 0.84 7.55 1.06 11.67 0.25 4.63 1.89 7.88 2.58 0.94 4.24 0.94 0.81 7.28 0.17 10.06-1.65 7.23-1.08 7.5 3.65 2.05 0.94 5.19-4.43 9.37-5.73 13.73-0.87 2.92 5.23-3.37 4.18 0.97-0.94 3.86-7.51 7.14-8.64 10.51-0.67 1.98 4.18-1.19 4.76-0.34 4.05 0.44-8.36 7.21-8.9 7.68-0.71 0.6-3.41 3.6-3.4 4.14 0 0.22 2.07 2.42 2.56 3.68 3.04 7.69 0.38 17.85-5.24 23.73-2.69 2.8-5.24 2.53-6.31 7.08-2.96 12.59 1.53 34.17 10.78 43.63v-14.35c0-5.65 5.23-12.65 6.23-17.36 0.65-3.09-0.77-6.58-0.48-10.06 0.59-7.27 5.62-15.96 12.57-18.68 3.14-1.23 6-0.52 7.96-3.52 3.52-5.4 0.56-11.15 1.15-17.03 1.17-1.33 3.35 4.16 3.19 5.1 1.44-0.84 1.94-5.65 1.93-7.3-0.04-3.96-0.38-5.42-0.06-9.63 0.36-4.86-0.17-14.55 3.23-3.48 4.18-4.14 0.65-11.34 0.63-16.26 0-0.49 0.51-3.99 0.64-4.15 1.7-1.96 2.6 6.34 3.51 6.37 0.27 0 0.45-0.21 0.6-0.51q-0.13-0.61 0.07-1.28 0.33-7.35 0.66-14.7c1.33 1.36 2.47 2.89 3.45 4.52v-8.43c0.95 0.46 1.97 3.44 2.43 0.89 0.59-3.21-3.52-9.16-1.78-13.01 2.04 0.73 1.74 4.56 3.82 4.78 1.68-7.88-3.08-12.92-3.82-20.09 1.89 0.17 2.69 4.54 4.46 3.5-0.7-4.81-5.01-8.81-5.7-13.44-0.7-4.68 3.23 2.45 4.41 1.33-1.46-3.28-5.88-7.33-6.37-10.86-0.16-1.17 0.75-1.39 1.26-0.93 0.18 0.15 0.42 2.02 1.62 2.54 0.78 0.33 1.18-0.12 0.94-0.94-0.73-2.48-5.36-5.32-6.33-9.63-0.65-2.85 3.08 1.9 3.78 0.69-1.46-3.38-5.61-7.71-5.1-11.48 0.26-1.94 2.43 2.28 3.19 2.23 0.1-4.56-3.32-8.11-2.55-12.76l2.55 1.91c-1.21-1.94 2.09-19.94 5.74-16.58 0.58 0.54-1.36 2.36-1.62 3.16-1.87 5.95 1.09 10.73 1.63 16.61l2.54-4.46c0.11 2-0.15 4.05 0.01 6.05 0.08 1.02 1.14 11.57 2.54 10.53l0.96-4.46c3.89 4.4 0.47 11.68 5.42 15.31l0.01-5.11c3.44 1.36 1.01 9.85 2.55 11.48 1.66 1.76 1.34-3.98 1.28-4.46 4.32 4.31 3.52 11.71 5.74 17.22 1.85-0.05 0.92-8.29 3.1-4.71 2.61 4.29-0.26 10.57 2 15.55 1.44 0.11 2.14-8.32 3.67-4.63 1.85 4.45-0.67 7.77-1.05 12.04-0.05 0.65-0.39 5.56 1.2 4.4 2.51-5.12 5.19-5.05 3.22 1.3-0.7 2.26-2.32 4.25-2.94 6.63-0.29 1.11-1.33 6.2 0.36 5.46 0.71-0.31 4.46-5.68 5.1-2.54 0.72 3.53-8.8 11.03-8.29 15.61 0.5 0.53 6.24-4.37 6.36-1.6 0.09 2.03-10.28 8.86-9.55 12.44 0.47 0.5 6.9-3.46 4.78 0.64-1.59 3.07-9.02 5.43-10.51 9.26-1.04 2.67 6.84-2.06 5.73 0.62-1.44 3.46-11.64 7.11-14.03 10.86 1.69 0.58 3.52-0.33 5.4-0.36 0.71-0.01 1.78-0.35 1.61 0.66l-17.55 9.56-0.3 1.29 5.73 0.01c0.23 1.07-0.29 1.29-1.04 1.82-4.06 2.8-10.68 1.47-15.21 5.83-3.94 3.79-0.73 4.85-0.48 8.77 0.48 7.69-5.4 17.26-12.37 20.49-5.61 2.6-8.81 0.43-12.87 6.25-5.69 8.13-7.19 22.82-2.56 31.66 0.24 0.46 1.41 2.23 2.51 3.39l0.03 0.24c5.47 3.36 11.87 5.33 18.75 5.33zm-122.39-62.74c1.3 1.04 3.64 0.16 5.22-1.95 1.58-2.11 1.81-4.66 0.51-5.7-1.3-1.04-3.64-0.17-5.22 1.94-1.58 2.11-1.81 4.67-0.51 5.71zm-58.96-20.6c-0.15-2.63-1.62-4.73-3.29-4.69-1.66 0.04-2.89 2.21-2.74 4.85 0.15 2.63 1.62 4.73 3.28 4.69 1.66-0.04 2.89-2.21 2.75-4.85zm33.22 0.2c0.77-2.53 0.12-5.01-1.45-5.54-1.58-0.54-3.48 1.07-4.26 3.59-0.77 2.52-0.12 5 1.45 5.54 1.58 0.54 3.48-1.07 4.26-3.59z"/>
		<path id="&lt;Compound Path&gt;" fill-rule="evenodd" class="s1" d="m969.33 920.24c6.88 0 13.28-1.97 18.75-5.33l0.03-0.24c1.1-1.16 2.27-2.93 2.51-3.39 4.63-8.84 3.12-23.53-2.56-31.66-4.07-5.82-7.26-3.65-12.88-6.25-6.97-3.23-12.84-12.8-12.36-20.49 0.24-3.92 3.45-4.98-0.48-8.77-4.53-4.36-11.15-3.03-15.21-5.83-0.76-0.53-1.27-0.75-1.04-1.82l5.73-0.01-0.3-1.29-17.55-9.56c-0.17-1.01 0.9-0.67 1.61-0.66 1.88 0.03 3.71 0.94 5.4 0.36-2.4-3.75-12.59-7.4-14.03-10.86-1.11-2.68 6.77 2.05 5.73-0.62-1.49-3.83-8.92-6.19-10.51-9.26-2.12-4.1 4.31-0.14 4.77-0.64 0.73-3.58-9.63-10.41-9.54-12.44 0.12-2.77 5.86 2.13 6.36 1.6 0.5-4.58-9.01-12.08-8.29-15.61 0.64-3.14 4.39 2.23 5.1 2.54 1.68 0.74 0.65-4.35 0.36-5.46-0.62-2.38-2.25-4.37-2.94-6.63-1.97-6.35 0.7-6.42 3.21-1.3 1.59 1.16 1.26-3.75 1.2-4.4-0.37-4.27-2.89-7.59-1.04-12.04 1.52-3.69 2.23 4.74 3.67 4.63 2.26-4.98-0.61-11.26 1.99-15.55 2.19-3.58 1.26 4.66 3.11 4.71 2.21-5.51 1.42-12.91 5.74-17.22-0.06 0.48-0.38 6.22 1.28 4.46 1.54-1.63-0.89-10.12 2.55-11.48l0.01 5.11c4.94-3.63 1.53-10.91 5.42-15.31l0.96 4.46c1.39 1.04 2.45-9.51 2.54-10.53 0.16-2-0.1-4.05 0.01-6.05l2.54 4.46c0.54-5.88 3.5-10.66 1.62-16.61-0.25-0.8-2.19-2.62-1.61-3.16 3.65-3.36 6.95 14.64 5.74 16.58l2.54-1.91c0.78 4.65-2.65 8.2-2.54 12.76 0.76 0.05 2.93-4.17 3.19-2.23 0.51 3.77-3.64 8.1-5.1 11.48 0.69 1.21 4.42-3.54 3.78-0.69-0.97 4.31-5.6 7.15-6.33 9.63-0.24 0.82 0.15 1.27 0.94 0.94 1.2-0.52 1.43-2.39 1.61-2.54 0.52-0.46 1.43-0.24 1.26 0.93-0.48 3.53-4.9 7.58-6.37 10.86 1.19 1.12 5.12-6.01 4.42-1.33-0.69 4.63-5 8.63-5.71 13.44 1.78 1.04 2.58-3.33 4.47-3.5-0.74 7.17-5.5 12.21-3.82 20.09 2.08-0.22 1.78-4.05 3.82-4.78 1.74 3.85-2.38 9.8-1.79 13.01 0.47 2.55 1.49-0.43 2.44-0.89v8.43c0.98-1.63 2.12-3.16 3.44-4.52q0.34 7.35 0.67 14.7 0.19 0.67 0.07 1.28c0.15 0.3 0.33 0.51 0.6 0.51 0.9-0.03 1.81-8.33 3.5-6.37 0.14 0.16 0.65 3.66 0.64 4.15-0.01 4.92-3.55 12.12 0.64 16.26 3.4-11.07 2.87-1.38 3.23 3.48 0.31 4.21-0.03 5.67-0.06 9.63-0.02 1.65 0.48 6.46 1.93 7.3-0.16-0.94 2.02-6.43 3.19-5.1 0.59 5.88-2.38 11.63 1.15 17.03 1.96 3 4.82 2.29 7.96 3.52 6.95 2.72 11.98 11.41 12.57 18.68 0.29 3.48-1.13 6.97-0.48 10.06 0.99 4.71 6.23 11.71 6.23 17.36v14.35c9.24-9.46 13.74-31.04 10.78-43.63-1.07-4.55-3.62-4.28-6.31-7.08-5.62-5.88-8.29-16.04-5.24-23.73 0.49-1.26 2.56-3.46 2.56-3.68 0.01-0.54-2.69-3.54-3.4-4.14-0.54-0.47-12.95-7.24-8.91-7.68 0.58-0.85 5.44 2.32 4.77 0.34-1.14-3.37-7.7-6.65-8.64-10.51-1.06-4.34 5.05 1.95 4.18-0.97-1.3-4.36-6.68-8.54-5.73-13.73 4.73 5.45 5.3 5.18 3.64-2.05-0.63-2.78-4.06-9.12 0.18-10.06 0.68 6.94 2.32 3.69 2.58-0.94 0.22-4.12-1.52-8.07 1.05-11.67 0.32-0.44 0.61-1.76 1.47-0.79 0.34 0.38-0.06 4.75 1.27 5.1 1.23-3.58 2.68-7.1 3.55-10.8 0.78-3.28-0.17-7.93 2.83-10.24l0.65 7.01c4.98-2.15 1.69-16.13 3.19-17.22 2-1.44 1.58 4.33 3.18 4.46 2.01-5.33-1-10.27 0.01-15.3l3.82 4.46c1.29-3.61-2.56-10.88-1.9-13.68 0.77-3.32 2.64 3.44 3.81 3.48 0.58-4.87-2.35-9.23-1.9-14.03l3.17 3.18c-0.23-4.61 1.03-9.72-1.89-13.71 1.16-1.92 2.67 0.79 3.3 1.79 2.27 3.63 3.46 9.03 4.35 13.2l1.59-3.81c0.35 0 1.59 2.5 1.59 2.85v13.08c2.35 0.49 1.13-3.3 3.18-3.83 0.91 5.08-1.25 10.15-1.26 15.31l3.18-3.83c0.03 3.82-3.59 6.75-3.18 10.84 1.93-0.86 1.34-4.67 3.82-4.78 1 6.52-4.89 11.27-5.1 17.54 1.42-0.75 2.33-3.9 4.47-2.86-0.06 4.73-5.91 8.95-7.01 12.76-0.78 2.7 3.53-1.87 4.45-0.97 1.72 1.71-6.91 10.02-7.64 11.81-0.12 0.29-0.17 1.04 0.3 0.94 0.57-0.18 4.64-3.42 4.16-0.94-0.44 2.31-8.39 9.35-7.02 11.15 1.27-0.56 4.01-3.11 3.75-0.41-0.22 2.3-7.12 8.17-6.3 11.89 1.95 0.37 1.24-1.78 2.94-2.48 0.88-0.36 1.7-0.38 1.53 0.89-0.31 2.25-2.97 5.31-3.96 7.53-0.38 0.86-2.43 6.16-2.41 6.51 0.13 3.2 3.98-4.11 5.08-2.88 0.1 5.83-5.68 8.8-4.46 14.99 0.34 1.75 2.81 2.35 4.13 3.52 6.02 5.37 7.84 14.66 5.76 22.31-0.81 2.96-3.71 6.7-4.11 9.29-0.84 5.38 0.38 12.61-0.12 18.37-0.58 6.62-3.06 13.26-5.02 19.54 8.82-8.31 15.98-18.92 19.45-30.62 0.56-1.88 2.21-7.61 2.04-9.17-0.15-1.49-2.49-4.56-3.12-6.33-3.17-8.91-1.03-20.24 6.54-26.23 1.91-1.51 3.59-0.81 4.64-3.66 2.45-6.64-1.03-11.78-0.85-18.39 2.35-0.19 1.95 3.17 3.82 3.83-0.44-2.27 0.67-4.48 0.6-6.6-0.14-4.22-3.06-7.6-1.3-12.29 1.39-3.7 1.7 3.91 3.25 4.22 1.72-7.24-0.9-13.3-0.63-20.41 1.41-1.76 2.25 5.41 3.82 5.1 2.96-8.69-0.96-16.77-1.26-25.51 2.21 1.35 3.48 4.51 3.82 7.01 0.91 0.02 1.15-2.95 1.14-3.5-0.02-1.58-0.53-5.02-0.94-6.59-1.28-4.89-6.5-11.25-7.23-16.38-0.41-2.89 3.74 1.3 4.47 0.96 2.05-2.35-8.37-11.2-8.27-13.72 0.12-3.1 4.2 2.45 5.08 1.29-1.42-4.32-7.83-8.81-8.91-12.78-0.76-2.78 3.96 1.28 4.45 0.97 1.3-1.37-8.88-9.82-7.65-12.75 0.4-0.45 4.99 3.64 3.82 0.96-1.06-2.42-8.32-8.04-8.27-10.21 0.06-2.66 4.78 2.86 4.44 0.01l-9.55-10.86c0.09-2.87 3.07 1.97 4.45 0.65l-8.92-8.3c0.69-1.41 5.18 1.94 5.09 0-0.06-1.11-10.78-7.77-10.82-8.93-0.08-2.28 4.36 1.17 5.09 0.01l-9.56-7.67c-0.9-2.12 3.55 0.37 3.82-0.62l-8.29-7.67 1.27-1.9c-2.55-3.19-7.22-6.37-10.58-2.29-0.86 1.04-0.48 2.49-1.53 2.6 0.69-10.84 13.12-6.56 18.82-1.91 0.59 0.05 0.16-0.99 0.38-1.17 1.72-1.35 10 9.8 10.78 12.01 2.5 1.01-0.13-3.33 1.59-3.17 1.55 0.14 5.86 9.43 6.06 11.46l1.28-2.55c1.05-1.21 6.47 13.42 6.38 14.67l1.27-3.82c1.45-1.09 7.67 19 8.93 20.4 2.95 0.49-0.38-5.22 0.64-6.37 1.86-0.14 2.68 2.64 3.2 4.12 0.32 0.89 3.66 16.32 5.08 14.37 0.03-0.49-0.54-6.83 1.27-5.1 0.69 0.67 5.02 18.5 6.38 16.59-0.31-2.82 0.3-6.33 2.4-2.71 2.7 4.67 2.16 11.78 4.63 16.74l2.23-3.82c2.22 0.01 3.19 17.71 4.15 20.4l3.17-6.38c3.29 7.52-1.57 15.21-0.62 22.96l4.14-4.46c1.41 6.41-4.33 11.69-5.42 17.85 0.72 0.73 4.88-4.6 5.08-1.59 0.23 3.38-8.25 11.11-9.54 14.68l5.41-2.25c0.91 0.47 0.04 1.68-0.27 2.29-2.57 4.95-10.68 9.22-14.07 13.99 0.91 1.07 6.45-3.14 6.36-0.64-0.09 2.34-14.83 8.67-15.93 12.43 1.98 0.66 5.31-1.91 5.73 0.95-3.95 3.01-8.89 3.66-12.1 7.68-4.77 5.98-1.16 6.02 0.75 11.35 3.01 8.44 0.37 19.77-6.5 25.64-1.46 1.25-6.02 3.36-6.42 3.93-1.51 2.14-3.29 10.07-4.58 13.13-4.67 11.1-11.2 19.98-18.83 28.11-6.78 19.86-25.57 34.2-47.7 34.2l-97.98 3.14c0-5.7 0.52-12.37 0.52-18.03zm15.09-68.93c-1.58-2.11-3.92-2.98-5.22-1.95-1.3 1.04-1.07 3.6 0.51 5.71 1.58 2.11 3.92 2.98 5.22 1.94 1.3-1.03 1.07-3.59-0.51-5.7zm62.22-10.04c1.66 0.04 3.13-2.06 3.28-4.7 0.15-2.63-1.08-4.8-2.75-4.84-1.66-0.05-3.13 2.06-3.28 4.69-0.14 2.64 1.08 4.81 2.75 4.85zm-31.71-1.06c1.57-0.54 2.22-3.02 1.45-5.54-0.78-2.52-2.68-4.13-4.26-3.6-1.58 0.54-2.22 3.02-1.45 5.54 0.77 2.53 2.68 4.14 4.26 3.6z"/>
	</g>
</svg>